<?xml version="1.0" encoding="UTF-8" standalone="no"?>
<!-- Created with Inkscape (http://www.inkscape.org/) -->

<svg
   width="2688"
   height="779"
   viewBox="0 0 711.19998 206.11042"
   version="1.1"
   id="svg1"
   xml:space="preserve"
   xmlns="http://www.w3.org/2000/svg"
   xmlns:svg="http://www.w3.org/2000/svg"><defs
     id="defs1" /><g
     id="layer1"><path
       style="fill:#000000;stroke-width:2.55514"
       d="m 254.26713,186.95645 c -1.75319,-0.57005 -3.03694,-1.79989 -3.68401,-3.52934 -0.25349,-0.67754 -0.4609,-1.5062 -0.4609,-1.84149 0,-0.59475 0.0356,-0.61297 1.46026,-0.74753 0.80314,-0.0759 2.01612,-0.13849 2.6955,-0.13951 l 1.23524,-0.002 0.26238,0.87572 c 0.14797,0.49386 0.57953,1.15418 0.98972,1.51433 0.61732,0.54202 0.90768,0.63863 1.91949,0.63863 0.9773,0 1.28785,-0.0958 1.72316,-0.53101 1.15356,-1.15357 0.50799,-2.30414 -1.64239,-2.92716 -0.82737,-0.23968 -2.16142,-0.629 -2.96457,-0.86507 -2.02589,-0.59548 -3.6138,-1.56515 -4.32642,-2.64199 -0.52706,-0.79644 -0.5952,-1.10116 -0.5952,-2.66169 0,-1.56788 0.0668,-1.86323 0.60564,-2.67745 0.74052,-1.11902 2.21346,-2.08609 3.64483,-2.39307 1.67762,-0.35976 5.47126,-0.28617 6.97341,0.13542 1.81403,0.50899 3.20046,1.85624 3.70386,3.59915 0.20015,0.69298 0.30756,1.31633 0.2387,1.38519 -0.0689,0.0687 -1.34343,0.17222 -2.83237,0.22945 -2.4517,0.0945 -2.70715,0.0692 -2.70715,-0.26607 0,-0.20364 -0.28457,-0.6549 -0.63237,-1.00271 -0.54342,-0.54343 -0.79734,-0.63237 -1.80532,-0.63237 -1.28061,0 -1.88902,0.40369 -1.88902,1.25335 0,0.61648 0.34052,0.77111 3.39764,1.54292 3.14321,0.79355 4.28628,1.26226 5.34486,2.19172 2.38164,2.0911 2.27886,6.00537 -0.21519,8.19517 -1.51651,1.33151 -2.44165,1.59224 -5.93129,1.6716 -2.70657,0.0616 -3.32501,0.0102 -4.50849,-0.37469 z m 95.74694,0.22357 c -3.05003,-0.76148 -5.31365,-3.27857 -6.02466,-6.69921 -0.35392,-1.70275 -0.1347,-4.80619 0.44748,-6.3348 0.93591,-2.45738 2.71952,-4.16634 5.1232,-4.90876 1.8158,-0.56083 6.51677,-0.62269 8.24821,-0.10859 1.6683,0.49544 2.8486,1.50791 3.69882,3.17292 0.40123,0.7857 0.67392,1.51852 0.60597,1.62847 -0.068,0.10987 -1.30881,0.38168 -2.7575,0.60388 l -2.63399,0.40396 -0.42822,-0.58783 c -0.6094,-0.83658 -1.48949,-1.22476 -2.77687,-1.22476 -1.44205,0 -2.58659,0.63562 -3.25972,1.81027 -0.44951,0.78443 -0.51226,1.17219 -0.51226,3.16546 0,1.99324 0.0627,2.381 0.51226,3.16543 0.28229,0.49263 0.87821,1.09961 1.32746,1.35208 1.10856,0.62304 3.10637,0.62256 4.55616,-0.001 1.01679,-0.43742 1.06769,-0.4993 1.06769,-1.29802 v -0.83869 h -1.83886 -1.83886 v -1.83886 -1.83883 h 4.43976 4.43976 l -0.059,3.91833 -0.059,3.91833 -1.38754,0.83875 c -2.55054,1.54177 -3.42826,1.77485 -6.94137,1.8432 -1.72528,0.0335 -3.50232,-0.0301 -3.949,-0.14181 z m 89.22533,-0.10476 c -2.13627,-0.59286 -3.65426,-2.01102 -4.51166,-4.21488 -0.32312,-0.83052 -0.39009,-1.9187 -0.45601,-7.40947 l -0.0772,-6.43596 h 2.93499 2.93498 v 5.84798 c 0,6.35895 0.0785,6.86824 1.19282,7.7448 0.72085,0.56701 2.39715,0.63733 3.35732,0.14079 1.31112,-0.67803 1.3922,-1.10563 1.46571,-7.73032 l 0.0667,-6.0033 h 2.81137 2.81136 l -0.0657,6.65231 -0.0657,6.6523 -0.60135,1.22455 c -0.69372,1.41264 -1.94239,2.62827 -3.37437,3.28504 -0.84941,0.38958 -1.47235,0.46667 -4.13685,0.5119 -2.2432,0.0381 -3.46436,-0.0376 -4.2864,-0.26579 z m 107.51279,-0.11881 c -1.75319,-0.57005 -3.03694,-1.79989 -3.684,-3.52934 -0.25347,-0.67754 -0.46092,-1.5062 -0.46092,-1.84149 0,-0.59475 0.0355,-0.61297 1.46026,-0.74753 0.80316,-0.0759 2.01613,-0.13849 2.69552,-0.13951 l 1.23523,-0.002 0.26239,0.87572 c 0.14794,0.49386 0.57953,1.15418 0.9897,1.51433 0.61732,0.54202 0.90769,0.63863 1.9195,0.63863 0.97729,0 1.28787,-0.0958 1.72316,-0.53101 1.15357,-1.15357 0.50799,-2.30414 -1.64239,-2.92716 -0.82736,-0.23968 -2.16142,-0.629 -2.96458,-0.86507 -2.02586,-0.59548 -3.61378,-1.56515 -4.32641,-2.64199 -0.52705,-0.79644 -0.59519,-1.10116 -0.59519,-2.66169 0,-1.56788 0.0667,-1.86323 0.60564,-2.67745 0.74051,-1.11902 2.21344,-2.08609 3.64483,-2.39307 1.6776,-0.35976 5.47124,-0.28617 6.97341,0.13542 1.81402,0.50899 3.20046,1.85624 3.70385,3.59915 0.20007,0.69298 0.30756,1.31633 0.23865,1.38519 -0.0687,0.0687 -1.34344,0.17222 -2.83237,0.22945 -2.45171,0.0945 -2.70717,0.0692 -2.70717,-0.26607 0,-0.20364 -0.28454,-0.6549 -0.63235,-1.00271 -0.54342,-0.54343 -0.79735,-0.63237 -1.80533,-0.63237 -1.28061,0 -1.88901,0.40369 -1.88901,1.25335 0,0.61648 0.34052,0.77111 3.39764,1.54292 3.14321,0.79355 4.28627,1.26226 5.34487,2.19172 2.38164,2.0911 2.27885,6.00537 -0.21515,8.19517 -1.5165,1.33151 -2.44166,1.59224 -5.93129,1.6716 -2.70656,0.0616 -3.325,0.0102 -4.50849,-0.37469 z m -337.19253,-0.25602 c -0.0639,-0.26773 -0.97516,-4.35647 -2.02508,-9.08608 l -1.90895,-8.59932 h 2.76355 c 2.44589,0 2.77619,0.0434 2.87341,0.37857 0.0604,0.20824 0.47898,2.37429 0.93015,4.81347 0.45116,2.43916 0.85411,4.28883 0.89543,4.11035 0.0413,-0.1786 0.62716,-2.32019 1.30187,-4.75935 l 1.22673,-4.43488 2.81235,-0.0583 2.81236,-0.0582 1.29588,4.76988 c 0.71273,2.62344 1.31953,4.69397 1.34844,4.60122 0.0289,-0.0928 0.43988,-2.20118 0.91327,-4.68536 0.47338,-2.48421 0.89989,-4.55592 0.94778,-4.6038 0.0479,-0.048 1.29531,-0.0598 2.77203,-0.0263 l 2.68494,0.0608 -1.97028,8.97792 -1.97027,8.97789 -2.90273,0.0577 -2.90273,0.0577 -1.28333,-4.70899 c -0.70583,-2.58994 -1.39266,-5.03695 -1.5263,-5.4378 -0.23016,-0.69045 -0.32134,-0.44255 -1.73066,4.70529 l -1.4877,5.43412 h -2.87701 c -2.80494,0 -2.87993,-0.0128 -2.99315,-0.48676 z m 23.03941,-8.59932 v -9.08608 h 7.57173 7.57173 v 2.05518 2.05517 h -4.65121 -4.6512 v 1.4062 1.40617 h 4.3267 4.32671 v 1.83885 1.83883 h -4.32671 -4.3267 v 1.7307 1.73067 h 4.86754 4.86754 v 2.05518 2.0552 h -7.78806 -7.78807 z m 41.10367,2.05517 v -7.0309 h -2.92052 -2.92053 v -2.05517 -2.05518 h 8.65341 8.6534 v 2.05518 2.05517 h -2.92052 -2.92053 v 7.0309 7.0309 h -2.81235 -2.81236 z m 26.86998,6.43596 c -0.11782,-0.32721 -1.63629,-4.36382 -3.37436,-8.97022 -1.73807,-4.60643 -3.16012,-8.42744 -3.16012,-8.49116 0,-0.0636 1.35873,-0.11575 3.0194,-0.11575 h 3.0194 l 1.07534,3.40728 c 0.59144,1.87399 1.4356,4.57548 1.87592,6.00329 0.44032,1.42782 0.86806,2.67112 0.95054,2.76293 0.0825,0.0917 0.97048,-2.51983 1.97332,-5.80367 1.00285,-3.28384 1.87955,-6.06329 1.94822,-6.17659 0.0721,-0.11881 1.3532,-0.18039 3.03218,-0.14564 l 2.90732,0.0606 -3.33605,9.03198 -3.33604,9.03201 h -3.19042 -3.19042 z m 15.09903,-8.49113 v -9.08608 h 2.92052 2.92053 v 9.08608 9.08607 h -2.92053 -2.92052 z m 9.51875,0 v -9.08608 l 6.21963,0.001 c 3.49896,6.7e-4 6.56198,0.0963 7.00225,0.21872 1.30639,0.36288 2.20772,1.11228 2.8582,2.37643 0.54092,1.05127 0.60159,1.36578 0.52163,2.70398 -0.13488,2.25764 -1.0372,3.63586 -2.93596,4.4845 l -0.93687,0.41871 0.64533,0.36076 c 0.98377,0.54992 1.59277,1.41095 3.28354,4.64238 l 1.55169,2.9656 h -3.3463 -3.3463 l -1.71774,-3.17926 c -1.71168,-3.16804 -2.23423,-3.79745 -3.36314,-4.05084 l -0.59492,-0.13363 v 3.68182 3.68183 h -2.92052 -2.92052 z m 9.97276,-2.28256 c 1.03532,-0.53541 1.09822,-1.94219 0.11562,-2.58603 -0.26545,-0.17401 -1.31969,-0.3786 -2.36328,-0.45883 l -1.88405,-0.14487 v 1.90186 1.90187 l 1.75516,-0.14641 c 0.96534,-0.0805 2.03479,-0.29098 2.37655,-0.46769 z m 30.48191,2.28256 v -9.08608 h 2.92052 2.92052 v 9.08608 9.08607 h -2.92052 -2.92052 z m 9.51873,0 v -9.08608 h 2.78753 2.7875 l 3.2158,4.75225 3.21577,4.75225 0.0583,-4.75225 0.0582,-4.75225 h 2.70004 2.70005 v 9.08608 9.08607 l -2.75828,-0.005 -2.75827,-0.005 -3.13684,-4.62547 -3.13687,-4.62544 -0.0583,4.63053 -0.0582,4.63052 h -2.80813 -2.80815 z m 21.41718,0 v -9.08608 h 2.92052 2.92052 v 9.08608 9.08607 h -2.92052 -2.92052 z m 7.86885,8.60558 c 0.0721,-0.27118 1.57739,-4.33838 3.3454,-9.03827 l 3.21454,-8.54523 3.22379,-0.0593 3.22377,-0.0593 3.01864,8.06364 c 1.66025,4.435 3.19313,8.52606 3.40641,9.09123 l 0.38774,1.0276 h -3.09082 -3.0908 l -0.41485,-1.51435 -0.41483,-1.51436 h -3.0606 -3.06059 l -0.41731,1.46027 -0.4173,1.46026 -2.99202,0.0603 -2.99199,0.0603 z m 11.59617,-6.49632 c -0.003,-0.0299 -0.42492,-1.39776 -0.93794,-3.04003 l -0.93281,-2.98591 -0.82439,2.7696 c -0.45343,1.52327 -0.86925,2.89126 -0.92406,3.04 -0.0749,0.20313 0.36382,0.27041 1.76235,0.27041 1.0241,0 1.85969,-0.0255 1.85685,-0.0542 z m 39.1618,-2.10926 v -9.08608 h 2.7875 2.78753 l 3.21577,4.75225 3.21579,4.75225 0.0583,-4.75225 0.0583,-4.75225 h 2.70006 2.70005 v 9.08608 9.08607 l -2.75828,-0.005 -2.75827,-0.005 -3.13687,-4.62547 -3.13684,-4.62544 -0.0583,4.63053 -0.0583,4.63052 h -2.80813 -2.80815 z m 21.20083,0 v -9.08608 h 2.92052 2.92052 v 9.08608 9.08607 h -2.92052 -2.92052 z m 14.32255,8.49113 c -0.11779,-0.32721 -1.63629,-4.36382 -3.37437,-8.97022 -1.73806,-4.60643 -3.16012,-8.42744 -3.16012,-8.49116 0,-0.0636 1.35875,-0.11575 3.01941,-0.11575 h 3.01941 l 1.07533,3.40728 c 0.59143,1.87399 1.4356,4.57548 1.87593,6.00329 0.4403,1.42782 0.86806,2.67112 0.95054,2.76293 0.0825,0.0917 0.97046,-2.51983 1.9733,-5.80367 1.00287,-3.28384 1.87956,-6.06329 1.94822,-6.17659 0.0721,-0.11881 1.3532,-0.18039 3.03218,-0.14564 l 2.90732,0.0606 -3.33604,9.03198 -3.33604,9.03201 h -3.19043 -3.19039 z m 14.88269,-8.49113 v -9.08608 h 7.57174 7.57172 v 2.05518 2.05517 h -4.6512 -4.65122 v 1.4062 1.40617 h 4.32672 4.3267 v 1.83885 1.83883 h -4.3267 -4.32672 v 1.7307 1.73067 h 4.86754 4.86754 v 2.05518 2.0552 h -7.78806 -7.78806 z m 18.17214,0 v -9.08608 l 6.21965,0.001 c 3.49898,6.7e-4 6.56198,0.0963 7.00225,0.21872 1.30639,0.36288 2.20772,1.11228 2.85821,2.37643 0.54089,1.05127 0.60158,1.36578 0.52163,2.70398 -0.13491,2.25764 -1.03721,3.63586 -2.93598,4.4845 l -0.93687,0.41871 0.64535,0.36076 c 0.98375,0.54992 1.59277,1.41095 3.28353,4.64238 l 1.55169,2.9656 h -3.34629 -3.34631 l -1.71775,-3.17926 c -1.71166,-3.16804 -2.23421,-3.79745 -3.36312,-4.05084 l -0.59494,-0.13363 v 3.68182 3.68183 h -2.92052 -2.92053 z m 9.97279,-2.28256 c 1.03531,-0.53541 1.0982,-1.94219 0.11549,-2.58603 -0.26543,-0.17401 -1.31968,-0.3786 -2.36327,-0.45883 l -1.88406,-0.14487 v 1.90186 1.90187 l 1.75518,-0.14641 c 0.96533,-0.0805 2.03478,-0.29098 2.37656,-0.46769 z m 28.10221,2.28256 v -9.08608 h 2.92052 2.92053 v 9.08608 9.08607 h -2.92053 -2.92052 z m 14.27811,2.05517 v -7.0309 h -2.92052 -2.92052 v -2.05517 -2.05518 h 8.65338 8.65342 v 2.05518 2.05517 h -2.92053 -2.92052 v 7.0309 7.0309 h -2.81237 -2.81234 z m 18.82116,3.2417 v -3.78916 l -3.46137,-5.18543 c -1.90373,-2.85197 -3.46135,-5.23558 -3.46135,-5.2969 0,-0.0613 1.44826,-0.11141 3.21835,-0.11141 h 3.21838 l 1.72122,2.93322 1.72124,2.93323 1.7228,-2.87916 1.72283,-2.87913 3.29409,-0.0598 3.29408,-0.0598 -3.57461,5.35928 -3.57461,5.35927 v 3.73247 3.73247 h -2.92053 -2.92052 z m -499.085095,0.8268 C 80.702112,172.42681 70.103668,156.43754 66.343393,139.67166 c -1.241389,-5.53494 -1.487618,-7.9175 -1.494851,-14.46451 -0.0072,-6.47181 0.190588,-8.56378 1.298547,-13.73727 4.022009,-18.780426 16.339593,-36.305281 34.042731,-48.434321 1.78414,-1.222378 2.31118,-1.490157 2.50577,-1.273098 0.13554,0.151264 0.96089,1.394391 1.83411,2.762693 0.87323,1.368328 1.91068,2.992707 2.30544,3.609722 l 0.71776,1.121859 -2.43153,1.667765 c -20.510775,14.068186 -32.708494,36.66719 -31.108701,57.63586 1.129933,14.81017 7.447543,28.45482 18.694682,40.37641 2.575887,2.73037 8.951249,8.28877 10.503369,9.15744 0.23282,0.13031 -0.32736,1.0428 -2.37855,3.87453 -1.475706,2.03724 -2.780961,3.69997 -2.900569,3.69496 -0.119608,-0.005 -1.04495,-0.65253 -2.056316,-1.43892 z m 11.326725,-12.0217 c -11.647487,-8.86 -19.788877,-20.07752 -23.51027,-32.39331 -1.57207,-5.2027 -2.196873,-9.53494 -2.184016,-15.14344 0.01048,-4.53282 0.334739,-7.40919 1.292906,-11.46578 3.513733,-14.876043 13.692002,-28.684985 28.29649,-38.390042 1.32521,-0.880654 2.52558,-1.632427 2.66749,-1.670652 0.26772,-0.07205 4.83778,7.221462 4.8103,7.676966 -0.009,0.14181 -1.12533,0.980535 -2.48171,1.863642 -4.98251,3.244081 -10.77063,8.438244 -14.24206,12.780626 -5.236541,6.55035 -8.868254,14.02058 -10.412128,21.41718 -0.702017,3.3633 -0.959398,9.16617 -0.552895,12.46547 0.636135,5.16302 2.016644,9.73367 4.435296,14.68456 3.923941,8.03218 9.910517,15.11891 17.686657,20.93691 l 2.31383,1.73116 -2.53016,3.74624 c -1.39159,2.06042 -2.62752,3.74903 -2.74651,3.75245 -0.11898,0.003 -1.39843,-0.89297 -2.84322,-1.99198 z m 53.73606,-2.69948 c -0.80314,-0.0417 -1.46026,-0.15765 -1.46026,-0.25756 0,-0.10016 -0.43808,-0.24759 -0.97351,-0.32787 -0.53543,-0.0802 -0.97351,-0.23738 -0.97351,-0.34909 0,-0.11166 -0.14659,-0.20313 -0.32574,-0.20313 -0.50873,0 -2.21708,-1.86132 -2.37712,-2.58997 -0.0791,-0.3603 -0.23348,-0.65506 -0.34302,-0.65506 -0.10954,0 -0.19915,-0.73013 -0.19915,-1.62251 0,-0.89238 0.0789,-1.62251 0.17544,-1.62251 0.0965,0 0.30019,-0.48676 0.45266,-1.0817 0.15247,-0.59491 0.35606,-1.08166 0.45241,-1.08166 0.0964,0 0.27699,-0.29206 0.40142,-0.64901 0.12444,-0.35695 0.31914,-0.649 0.43267,-0.649 0.11353,0 0.30824,-0.29206 0.43267,-0.64901 0.12444,-0.35695 0.31333,-0.649 0.41977,-0.649 0.10645,0 0.37921,-0.3588 0.60617,-0.79731 0.22695,-0.43851 0.58302,-0.97394 0.79124,-1.18983 0.20822,-0.21591 0.37859,-0.52817 0.37859,-0.69392 0,-0.16583 0.14429,-0.35672 0.32062,-0.42438 0.17636,-0.0677 0.38349,-0.51617 0.46032,-0.99666 0.0768,-0.4805 0.2246,-0.87363 0.32838,-0.87363 0.10377,0 0.1887,-0.63278 0.1887,-1.40617 0,-0.79322 -0.0943,-1.40617 -0.21634,-1.40617 -0.119,0 -0.21635,-0.22511 -0.21635,-0.50004 0,-0.92409 -0.74573,-1.44697 -2.06361,-1.44697 -0.90592,0 -1.18141,-0.0756 -1.18141,-0.32451 0,-0.1786 -0.0817,-0.3245 -0.18162,-0.3245 -0.0999,0 -0.31022,-0.68145 -0.46738,-1.51435 -0.15716,-0.8329 -0.3548,-1.51436 -0.43922,-1.51436 -0.0844,0 -0.2684,-0.5841 -0.40885,-1.29801 -0.14046,-0.7139 -0.3368,-1.29801 -0.43633,-1.29801 -0.0995,0 -0.30035,-0.63278 -0.44628,-1.40617 -0.14592,-0.77339 -0.33307,-1.40617 -0.41587,-1.40617 -0.0828,0 -0.32841,-0.87616 -0.5458,-1.94701 -0.21739,-1.07086 -0.46251,-1.94702 -0.5447,-1.94702 -0.16116,0 -0.66075,-2.98218 -0.65841,-3.93008 7.9e-4,-0.3173 -0.11367,-0.61528 -0.25439,-0.66217 -0.31106,-0.10374 -0.32762,-10.10143 -0.0171,-10.31108 0.1075,-0.0726 0.31928,-1.49471 0.47061,-3.1603 0.15131,-1.66559 0.34352,-3.07718 0.42711,-3.13687 0.0836,-0.0598 0.33481,-1.25237 0.55828,-2.65044 0.22348,-1.39807 0.47463,-2.54196 0.55812,-2.54196 0.0835,0 0.28138,-0.5841 0.43976,-1.29801 0.15837,-0.7139 0.35258,-1.29801 0.43156,-1.29801 0.079,0 0.26624,-0.43808 0.41616,-0.97351 0.14991,-0.53543 0.3446,-0.9735 0.43264,-0.9735 0.0881,0 0.27498,-0.58411 0.41544,-1.29802 0.14045,-0.7139 0.33224,-1.29801 0.42619,-1.29801 0.094,0 0.29933,-0.3894 0.45641,-0.86532 0.15706,-0.475945 0.34719,-0.865348 0.42249,-0.865348 0.0753,0 0.31891,-0.53543 0.54135,-1.189852 0.22245,-0.654397 0.49105,-1.189826 0.59689,-1.189826 0.10586,0 0.29154,-0.284259 0.41265,-0.631656 0.12112,-0.347422 0.35943,-0.685084 0.52959,-0.750393 0.17017,-0.06541 0.30938,-0.255769 0.30938,-0.423284 0,-0.167617 0.36507,-0.694462 0.81126,-1.171021 0.44619,-0.476584 1.10331,-1.225419 1.46026,-1.664136 0.97902,-1.203215 1.58652,-1.849563 1.73839,-1.849563 0.0751,0 0.45233,-0.316403 0.83831,-0.703097 0.38598,-0.386695 0.92759,-0.849124 1.20358,-1.027601 0.276,-0.178604 0.78152,-0.59085 1.1234,-0.916375 0.34188,-0.32555 0.85596,-0.650717 1.14242,-0.722619 0.28645,-0.0718 0.57348,-0.267957 0.63785,-0.435702 0.0644,-0.167872 0.26611,-0.304981 0.44832,-0.304981 0.18221,0 0.33129,-0.09556 0.33129,-0.212332 0,-0.11677 0.24338,-0.273298 0.54084,-0.347959 0.29746,-0.07461 0.54084,-0.222553 0.54084,-0.328617 0,-0.106038 0.13907,-0.192913 0.30905,-0.192913 0.16997,0 0.43866,-0.129545 0.59706,-0.288015 0.15842,-0.158418 0.56653,-0.357924 0.90693,-0.443342 0.3404,-0.08534 0.76013,-0.296575 0.93273,-0.469175 0.1726,-0.172727 0.50157,-0.313822 0.73104,-0.313822 0.22948,0 0.41722,-0.08866 0.41722,-0.197256 0,-0.108594 0.3894,-0.263129 0.86534,-0.343539 0.47594,-0.08049 0.86534,-0.226385 0.86534,-0.324503 0,-0.09812 0.38941,-0.244015 0.86534,-0.324502 0.47594,-0.08049 0.86534,-0.225874 0.86534,-0.3232 0,-0.09735 0.48676,-0.244015 1.08168,-0.325805 0.59492,-0.08177 1.08167,-0.227408 1.08167,-0.323558 0,-0.09607 0.58411,-0.242482 1.29802,-0.325448 0.7139,-0.08279 1.29801,-0.230218 1.29801,-0.327262 0,-0.09709 0.73013,-0.245038 1.62251,-0.328693 0.89238,-0.08355 1.62251,-0.229196 1.62251,-0.323532 0,-0.09428 0.82748,-0.240438 1.83885,-0.324681 1.01137,-0.08432 1.83885,-0.230729 1.83885,-0.325678 0,-0.0948 1.07086,-0.241972 2.37968,-0.326751 1.30883,-0.08483 2.37969,-0.228174 2.37969,-0.318831 0,-0.09045 1.16821,-0.234817 2.59602,-0.320593 1.42781,-0.08585 2.59602,-0.229962 2.59602,-0.320593 0,-0.09045 1.19255,-0.235584 2.65011,-0.322484 1.45756,-0.08687 2.70007,-0.238139 2.76113,-0.336257 0.0611,-0.09812 1.30229,-0.248104 2.75827,-0.333292 1.45599,-0.08509 2.64725,-0.228685 2.64725,-0.319188 0,-0.09045 1.11953,-0.234306 2.48785,-0.319776 1.36832,-0.0856 2.48786,-0.229451 2.48786,-0.319826 0,-0.09045 1.21688,-0.234562 2.70418,-0.320364 1.48731,-0.08585 2.70419,-0.233795 2.70419,-0.328744 0,-0.09505 1.21689,-0.242993 2.70419,-0.328718 1.48731,-0.08585 2.70419,-0.230985 2.70419,-0.322382 0,-0.09147 1.16821,-0.236606 2.59602,-0.322408 1.42781,-0.08585 2.59602,-0.230984 2.59602,-0.322382 0,-0.09147 1.21689,-0.236605 2.70419,-0.322381 1.48731,-0.08585 2.70419,-0.235073 2.70419,-0.33153 0,-0.09658 1.16821,-0.245293 2.59602,-0.330533 1.42781,-0.08509 2.59602,-0.22894 2.59602,-0.319571 0,-0.09045 1.16821,-0.234817 2.59602,-0.320619 1.42782,-0.08585 2.59603,-0.230984 2.59603,-0.322381 0,-0.09147 1.21688,-0.236606 2.70418,-0.322382 1.48731,-0.08585 2.70419,-0.233796 2.70419,-0.328745 0,-0.09505 1.21689,-0.242993 2.70419,-0.328718 1.4873,-0.08585 2.70419,-0.230985 2.70419,-0.322382 0,-0.09147 1.16821,-0.236606 2.59602,-0.322407 1.42781,-0.08585 2.59602,-0.229963 2.59602,-0.320594 0,-0.09045 1.16821,-0.234306 2.59602,-0.319571 1.42782,-0.08534 2.59602,-0.23124 2.59602,-0.324784 0,-0.09352 0.49713,-0.217698 1.10474,-0.27598 0.6076,-0.05851 1.16835,-0.209011 1.24609,-0.334877 0.0778,-0.125713 0.4081,-0.29568 0.73412,-0.377496 0.32601,-0.08176 0.59275,-0.225108 0.59275,-0.318217 0,-0.09326 0.25513,-0.23354 0.56697,-0.311727 0.31184,-0.07819 0.70819,-0.283518 0.8808,-0.456118 0.17259,-0.172472 0.50157,-0.313822 0.73104,-0.313822 0.22947,0 0.41721,-0.08969 0.41721,-0.199045 0,-0.109616 0.29206,-0.263282 0.64901,-0.341699 0.35695,-0.07844 0.649,-0.224341 0.649,-0.324503 0,-0.100161 0.29206,-0.24606 0.64901,-0.324502 0.35695,-0.07844 0.64901,-0.224342 0.64901,-0.324503 0,-0.100161 0.31087,-0.250148 0.69083,-0.333676 0.37996,-0.08355 0.82499,-0.285894 0.98896,-0.449857 0.16396,-0.16404 0.4372,-0.298134 0.60717,-0.298134 0.16997,0 0.30906,-0.09735 0.30906,-0.21642 0,-0.11907 0.18775,-0.21642 0.41721,-0.21642 0.22948,0 0.56455,-0.147432 0.74462,-0.327416 0.18006,-0.180137 0.6251,-0.386925 0.98896,-0.459695 0.36386,-0.07282 0.66156,-0.217442 0.66156,-0.321615 0,-0.103995 0.13908,-0.189336 0.30905,-0.189336 0.16997,0 0.44321,-0.134145 0.60718,-0.298134 0.16396,-0.16404 0.609,-0.366407 0.98896,-0.449858 0.37996,-0.08355 0.69083,-0.239416 0.69083,-0.346757 0,-0.107316 0.24338,-0.256102 0.54084,-0.330763 0.29746,-0.07461 0.54084,-0.210288 0.54084,-0.301583 0,-0.09122 0.2977,-0.225363 0.66156,-0.298159 0.36386,-0.07282 0.80889,-0.279635 0.98896,-0.459695 0.18006,-0.180138 0.51515,-0.327416 0.74462,-0.327416 0.22948,0 0.41722,-0.09735 0.41722,-0.21642 0,-0.11907 0.13907,-0.21642 0.30905,-0.21642 0.16996,0 0.4432,-0.134145 0.60717,-0.298134 0.16397,-0.16404 0.609,-0.366407 0.98896,-0.449858 0.37996,-0.08355 0.69084,-0.236861 0.69084,-0.341085 0,-0.10425 0.34073,-0.253215 0.75717,-0.331376 0.41644,-0.07819 0.75717,-0.222042 0.75717,-0.319725 0,-0.09761 0.21451,-0.245804 0.47667,-0.328974 0.26216,-0.0833 0.60984,-0.284464 0.77262,-0.447252 0.16279,-0.162762 0.48371,-0.295961 0.71318,-0.295961 0.22948,0 0.41722,-0.08969 0.41722,-0.199046 0,-0.109615 0.29205,-0.263281 0.649,-0.341698 0.35696,-0.07844 0.64901,-0.232262 0.64901,-0.341674 0,-0.109615 0.18775,-0.199045 0.41722,-0.199045 0.22947,0 0.55843,-0.141299 0.73104,-0.313822 0.1726,-0.172472 0.59233,-0.383731 0.93273,-0.469175 0.3404,-0.08534 0.74852,-0.284923 0.90693,-0.443342 0.15841,-0.158418 0.42708,-0.288015 0.59706,-0.288015 0.16997,0 0.30905,-0.08509 0.30905,-0.189336 0,-0.10425 0.2977,-0.24887 0.66156,-0.321615 0.36386,-0.07282 0.80889,-0.279635 0.98896,-0.459695 0.18006,-0.180138 0.51515,-0.327416 0.74462,-0.327416 0.22948,0 0.41722,-0.09735 0.41722,-0.21642 0,-0.119069 0.13907,-0.21642 0.30905,-0.21642 0.16997,0 0.4432,-0.134145 0.60717,-0.298134 0.16397,-0.16404 0.60901,-0.366407 0.98896,-0.449858 0.37996,-0.08355 0.69084,-0.24146 0.69084,-0.350871 0,-0.109616 0.13907,-0.199046 0.30905,-0.199046 0.16997,0 0.43866,-0.129545 0.59706,-0.288015 0.1584,-0.158419 0.56653,-0.357924 0.90693,-0.443342 0.3404,-0.08534 0.76013,-0.296575 0.93273,-0.469175 0.1726,-0.172727 0.50157,-0.313822 0.73104,-0.313822 0.22948,0 0.41722,-0.08968 0.41722,-0.199045 0,-0.109616 0.29205,-0.263282 0.649,-0.341699 0.35696,-0.07844 0.64901,-0.224341 0.64901,-0.324503 0,-0.100161 0.29205,-0.246059 0.64901,-0.324502 0.35695,-0.07844 0.649,-0.224341 0.649,-0.324503 0,-0.100161 0.31088,-0.250148 0.69084,-0.333675 0.37995,-0.08355 0.82499,-0.285895 0.98895,-0.449858 0.16397,-0.16404 0.4372,-0.298134 0.60718,-0.298134 0.16997,0 0.30905,-0.09735 0.30905,-0.21642 0,-0.11907 0.18775,-0.21642 0.41722,-0.21642 0.22948,0 0.56455,-0.147432 0.74462,-0.327416 0.18006,-0.180137 0.6251,-0.386925 0.98896,-0.459695 0.36386,-0.07282 0.66156,-0.217442 0.66156,-0.321615 0,-0.103994 0.13908,-0.189336 0.30905,-0.189336 0.16997,0 0.44321,-0.134145 0.60718,-0.298134 0.16396,-0.16404 0.609,-0.366407 0.98896,-0.449857 0.37995,-0.08355 0.69083,-0.241461 0.69083,-0.350872 0,-0.109616 0.18775,-0.199045 0.41722,-0.199045 0.22948,0 0.56455,-0.147432 0.74461,-0.327416 0.18007,-0.180137 0.62511,-0.386925 0.98897,-0.459695 0.36386,-0.07282 0.66156,-0.217442 0.66156,-0.321615 0,-0.103994 0.13907,-0.189336 0.30905,-0.189336 0.16996,0 0.4432,-0.134145 0.60717,-0.298134 0.16397,-0.16404 0.60901,-0.366407 0.98896,-0.449858 0.37996,-0.08355 0.69084,-0.24146 0.69084,-0.350871 0,-0.109616 0.18775,-0.199046 0.41722,-0.199046 0.22947,0 0.55843,-0.141299 0.73103,-0.313822 0.1726,-0.172472 0.59234,-0.38373 0.93274,-0.469174 0.3404,-0.08534 0.74852,-0.284924 0.90693,-0.443342 0.15839,-0.158419 0.47576,-0.288016 0.70523,-0.288016 0.22947,0 0.41722,-0.08968 0.41722,-0.199045 0,-0.109616 0.29205,-0.263282 0.649,-0.341699 0.35695,-0.07844 0.64901,-0.232262 0.64901,-0.341673 0,-0.109615 0.18775,-0.199045 0.41721,-0.199045 0.22948,0 0.54683,-0.129546 0.70523,-0.288016 0.15842,-0.158418 0.56653,-0.357923 0.90693,-0.443367 0.3404,-0.08534 0.76013,-0.29655 0.93274,-0.469149 0.17259,-0.172472 0.50156,-0.313822 0.73104,-0.313822 0.22947,0 0.41721,-0.08969 0.41721,-0.199046 0,-0.109615 0.31088,-0.267421 0.69084,-0.350871 0.37995,-0.08355 0.82499,-0.285895 0.98896,-0.449858 0.16396,-0.16404 0.48587,-0.298134 0.71534,-0.298134 0.22948,0 0.41722,-0.09301 0.41722,-0.206455 0,-0.113704 0.34073,-0.270462 0.75717,-0.348572 0.41645,-0.07819 0.75718,-0.22843 0.75718,-0.334315 0,-0.105782 0.13907,-0.192146 0.30904,-0.192146 0.16997,0 0.44321,-0.134145 0.60718,-0.298134 0.16397,-0.16404 0.609,-0.366407 0.98896,-0.449857 0.37996,-0.08355 0.69084,-0.241461 0.69084,-0.350872 0,-0.109615 0.18775,-0.199045 0.41721,-0.199045 0.22948,0 0.55138,-0.134145 0.71535,-0.298134 0.16396,-0.16404 0.609,-0.366407 0.98896,-0.449857 0.37996,-0.08355 0.69083,-0.241461 0.69083,-0.350872 0,-0.109616 0.18775,-0.199045 0.41722,-0.199045 0.22948,0 0.55621,-0.139 0.72609,-0.308866 0.16986,-0.169916 0.66358,-0.375426 1.09712,-0.456756 0.43355,-0.08125 0.78826,-0.229963 0.78826,-0.330329 0,-0.100417 0.34073,-0.246315 0.75718,-0.324502 0.41644,-0.07819 0.75717,-0.220764 0.75717,-0.317119 0,-0.09633 0.29205,-0.239161 0.649,-0.317629 0.35696,-0.07844 0.64901,-0.227663 0.64901,-0.331887 0,-0.10425 0.34073,-0.253214 0.75717,-0.331376 0.41645,-0.07819 0.75718,-0.217698 0.75718,-0.310245 0,-0.0925 0.34073,-0.232007 0.75716,-0.310219 0.41647,-0.07819 0.75719,-0.235073 0.75719,-0.348572 0,-0.113704 0.18781,-0.206456 0.41721,-0.206456 0.22945,0 0.5562,-0.138999 0.72609,-0.308865 0.16992,-0.169917 0.66357,-0.375426 1.09713,-0.456756 0.43353,-0.08125 0.78826,-0.229963 0.78826,-0.330329 0,-0.100417 0.34073,-0.246315 0.75719,-0.324502 0.41643,-0.07819 0.75716,-0.220764 0.75716,-0.317119 0,-0.09633 0.29205,-0.239161 0.64901,-0.317629 0.35695,-0.07844 0.649,-0.223575 0.649,-0.322663 0,-0.09914 0.38941,-0.245804 0.86535,-0.326342 0.47592,-0.08049 0.86532,-0.230474 0.86532,-0.333702 0,-0.103227 0.34073,-0.251425 0.75719,-0.329561 0.41644,-0.07819 0.75717,-0.220764 0.75717,-0.317119 0,-0.09633 0.29205,-0.239161 0.649,-0.317626 0.35696,-0.07844 0.64901,-0.223575 0.64901,-0.322663 0,-0.09914 0.3894,-0.245805 0.86535,-0.326343 0.47592,-0.08049 0.86532,-0.224085 0.86532,-0.319443 0,-0.09531 0.35473,-0.239672 0.78826,-0.321104 0.43356,-0.08125 0.92726,-0.286866 1.09713,-0.456757 0.16991,-0.169917 0.49661,-0.308865 0.72609,-0.308865 0.22945,0 0.41723,-0.08866 0.41723,-0.197257 0,-0.108593 0.3894,-0.263128 0.86532,-0.343538 0.47595,-0.08049 0.86535,-0.226386 0.86535,-0.324503 0,-0.09812 0.38941,-0.244016 0.86535,-0.324503 0.47592,-0.08049 0.86532,-0.224085 0.86532,-0.319443 0,-0.09531 0.36485,-0.241716 0.81078,-0.325321 0.44592,-0.08355 0.87293,-0.252703 0.94895,-0.375707 0.0761,-0.122902 0.85505,-0.273707 1.73118,-0.334928 0.87613,-0.06132 1.64216,-0.186525 1.70229,-0.278535 0.06,-0.09199 3.95413,-0.237884 8.65338,-0.324273 5.83111,-0.10706 8.59278,-0.232773 8.69739,-0.395663 0.21872,-0.340473 59.8329,-0.339757 60.05093,6.89e-4 0.10501,0.163785 2.85158,0.289319 8.69853,0.397555 4.69987,0.08687 8.59391,0.233795 8.65339,0.326112 0.0595,0.0925 2.93136,0.239416 6.38189,0.327083 3.45054,0.08764 6.32239,0.233284 6.3819,0.324017 0.0595,0.09071 2.34722,0.236351 5.08386,0.323839 2.73665,0.08739 5.0244,0.23405 5.08388,0.326035 0.0595,0.09198 2.1282,0.238395 4.59713,0.325678 2.46893,0.08713 4.48894,0.232774 4.48894,0.323583 0,0.09071 1.84967,0.23584 4.11038,0.322689 2.26068,0.08687 4.11035,0.234051 4.11035,0.327313 0,0.09326 1.65496,0.240439 3.67771,0.327288 2.02273,0.08687 3.67769,0.232773 3.67769,0.324656 0,0.09173 1.55761,0.237628 3.46137,0.324349 1.90373,0.08662 3.46134,0.234562 3.46134,0.32854 0,0.09403 1.46027,0.241461 3.24503,0.327569 1.78477,0.08611 3.24503,0.231495 3.24503,0.322944 0,0.09147 1.31423,0.236861 2.92052,0.322893 1.60629,0.08611 2.92053,0.230218 2.92053,0.320565 0,0.0902 1.31423,0.234562 2.92052,0.320593 1.60629,0.08611 2.92052,0.233029 2.92052,0.326445 0,0.09352 1.26556,0.240438 2.81237,0.32647 1.5468,0.08611 2.81236,0.232262 2.81236,0.324732 0,0.0925 1.16821,0.238395 2.59602,0.324273 1.42782,0.08585 2.59602,0.233029 2.59602,0.327083 0,0.09403 1.11954,0.24095 2.48784,0.326522 1.36833,0.0856 2.48786,0.228685 2.48786,0.318012 0,0.08943 1.07086,0.232007 2.37968,0.316812 1.30885,0.08483 2.3797,0.233795 2.3797,0.330993 0,0.09735 1.11954,0.246826 2.48784,0.332193 1.36833,0.0856 2.48786,0.231751 2.48786,0.325039 0,0.09326 1.02219,0.239161 2.27152,0.324401 1.24934,0.08509 2.27152,0.231495 2.27152,0.325141 0,0.09377 0.92483,0.239672 2.05517,0.324375 1.13037,0.08483 2.05521,0.227408 2.05521,0.316837 0,0.08943 0.9735,0.231751 2.16333,0.316097 1.18985,0.08432 2.16336,0.242993 2.16336,0.352379 0,0.10936 0.5111,0.200578 1.13576,0.202367 0.62468,0.0018 1.26993,0.08815 1.43389,0.192146 0.34906,0.22102 0.14079,0.669881 -0.31091,0.669881 -0.17145,0 -0.31173,0.09556 -0.31173,0.212332 0,0.11677 -0.24324,0.273298 -0.54082,0.347959 -0.29747,0.07461 -0.54084,0.222553 -0.54084,0.328616 0,0.106039 -0.139,0.192913 -0.30905,0.192913 -0.16991,0 -0.44224,0.133123 -0.60503,0.295962 -0.16276,0.162762 -0.51044,0.364031 -0.77262,0.447251 -0.26216,0.0833 -0.47666,0.234307 -0.47666,0.335848 0,0.101439 -0.29205,0.248615 -0.64901,0.327109 -0.35695,0.07844 -0.649,0.230218 -0.649,0.337585 0,0.107316 -0.24351,0.256101 -0.54085,0.330762 -0.29744,0.07461 -0.54082,0.222553 -0.54082,0.328617 0,0.106038 -0.139,0.192913 -0.30904,0.192913 -0.16992,0 -0.44225,0.133123 -0.60503,0.295962 -0.16277,0.162762 -0.51044,0.36403 -0.77263,0.447251 -0.26216,0.0833 -0.47666,0.234306 -0.47666,0.335848 0,0.101439 -0.29205,0.248615 -0.649,0.327108 -0.35696,0.07844 -0.64901,0.230218 -0.64901,0.337585 0,0.107316 -0.24325,0.256102 -0.54085,0.330763 -0.29744,0.07461 -0.54082,0.212077 -0.54082,0.30516 0,0.09326 -0.2504,0.232263 -0.5562,0.309044 -0.69842,0.175283 -0.5747,0.641902 0.19419,0.732917 0.31804,0.03756 0.57823,0.148198 0.57823,0.245548 0,0.09735 0.53543,0.244016 1.18985,0.325704 0.65442,0.08176 1.18985,0.229962 1.18985,0.329127 0,0.09914 0.48676,0.247338 1.08167,0.32923 0.59491,0.08176 1.08167,0.230985 1.08167,0.331555 0,0.100417 0.46243,0.250914 1.0276,0.334238 0.56517,0.0833 1.08657,0.242738 1.15868,0.354167 0.0721,0.111404 0.53448,0.256817 1.02757,0.322944 0.49309,0.06618 0.89652,0.196235 0.89652,0.289089 0,0.09275 0.3894,0.234562 0.86535,0.315023 0.47595,0.08049 0.86535,0.224086 0.86535,0.319443 0,0.09531 0.34073,0.237117 0.75716,0.315305 0.41644,0.07819 0.75717,0.222552 0.75717,0.320695 0,0.09837 0.48675,0.243249 1.08169,0.322152 0.59491,0.07895 1.08167,0.237628 1.08167,0.352379 0,0.114981 0.1878,0.208755 0.4172,0.208755 0.22945,0 0.55623,0.139 0.72609,0.308865 0.16992,0.169917 0.6636,0.375427 1.09713,0.456757 0.43356,0.08125 0.78826,0.225874 0.78826,0.32113 0,0.09531 0.3894,0.238905 0.86535,0.319418 0.47595,0.08049 0.86535,0.227151 0.86535,0.326342 0,0.09914 0.29205,0.244271 0.649,0.322663 0.35696,0.07844 0.64901,0.221275 0.64901,0.317629 0,0.09633 0.34073,0.238906 0.75716,0.317119 0.41644,0.07819 0.75717,0.224085 0.75717,0.324502 0,0.100417 0.34073,0.246316 0.75719,0.324503 0.41643,0.07819 0.75716,0.235073 0.75716,0.348572 0,0.113704 0.1878,0.206455 0.4172,0.206455 0.22946,0 0.55846,0.141299 0.73106,0.313822 0.17272,0.172472 0.59233,0.383731 0.93272,0.469175 0.3404,0.08534 0.74853,0.284923 0.90692,0.443342 0.15842,0.158419 0.47577,0.288015 0.70525,0.288015 0.22945,0 0.41723,0.08688 0.41723,0.192913 0,0.106039 0.25526,0.25692 0.56696,0.335183 0.31183,0.07819 0.70818,0.283519 0.88078,0.456118 0.17273,0.172472 0.50157,0.313822 0.73105,0.313822 0.22945,0 0.41723,0.08687 0.41723,0.192913 0,0.106039 0.24325,0.253981 0.54082,0.328617 0.29747,0.07461 0.54085,0.223575 0.54085,0.330763 0,0.107315 0.29205,0.259167 0.649,0.337559 0.35695,0.07844 0.64901,0.225619 0.64901,0.327134 0,0.101439 0.21463,0.252704 0.47666,0.335848 0.26215,0.0833 0.60983,0.284464 0.77262,0.447251 0.16276,0.162763 0.43504,0.295962 0.60501,0.295962 0.16991,0 0.30907,0.08662 0.30907,0.192147 0,0.105782 0.33132,0.254491 0.73626,0.330379 0.40496,0.07589 0.79133,0.281525 0.85855,0.456757 0.0672,0.175282 0.27136,0.318626 0.45356,0.318626 0.18219,0 0.3313,0.09071 0.3313,0.201856 0,0.110893 0.21438,0.269822 0.47666,0.353043 0.26216,0.0833 0.60984,0.284464 0.77263,0.447252 0.16276,0.162762 0.43504,0.295961 0.605,0.295961 0.16992,0 0.30907,0.09735 0.30907,0.216421 0,0.119069 0.139,0.21642 0.30905,0.21642 0.16991,0 0.44221,0.133123 0.605,0.295962 0.16276,0.162762 0.52567,0.368859 0.8064,0.457983 0.28074,0.08917 0.71922,0.387257 0.97438,0.662598 0.25526,0.275317 0.71968,0.564763 1.03225,0.643231 0.31257,0.07844 0.62098,0.279864 0.68534,0.447609 0.0644,0.167873 0.30437,0.304982 0.53334,0.304982 0.22894,0 0.47236,0.145898 0.54084,0.324502 0.0685,0.178605 0.27361,0.324503 0.45581,0.324503 0.18218,0 0.3313,0.09735 0.3313,0.21642 0,0.11907 0.12444,0.216421 0.27642,0.216421 0.15203,0 0.44313,0.194701 0.64688,0.432661 0.2039,0.237884 0.51744,0.432687 0.69709,0.432687 0.17963,0 0.32663,0.09735 0.32663,0.216421 0,0.119069 0.14896,0.21642 0.3313,0.21642 0.18218,0 0.38393,0.137211 0.44832,0.304981 0.0644,0.167617 0.35335,0.364287 0.64221,0.436801 0.28886,0.07257 0.52518,0.227408 0.52518,0.344024 0,0.11677 0.14897,0.212332 0.3313,0.212332 0.18218,0 0.38394,0.137211 0.44833,0.304982 0.0644,0.167872 0.35335,0.364286 0.64221,0.436801 0.28885,0.07257 0.52518,0.227407 0.52518,0.344024 0,0.116769 0.14896,0.212332 0.3313,0.212332 0.18218,0 0.38393,0.137211 0.44832,0.304981 0.0644,0.167873 0.36168,0.366381 0.66074,0.441451 0.29902,0.07512 0.65705,0.231751 0.79559,0.348036 1.0161,0.853442 1.31521,1.068891 1.48397,1.068891 0.10579,0 0.30994,0.09914 0.45367,0.220253 1.04303,0.879632 1.3357,1.077681 1.59239,1.077681 0.1602,0 0.29141,0.09735 0.29141,0.21642 0,0.11907 0.14897,0.216421 0.33127,0.216421 0.18219,0 0.38397,0.137211 0.44833,0.304981 0.0644,0.167873 0.35337,0.364286 0.64223,0.436801 0.28884,0.07257 0.52519,0.227407 0.52519,0.344024 0,0.11677 0.14896,0.212332 0.33127,0.212332 0.18218,0 0.38396,0.137211 0.44833,0.304981 0.0644,0.167617 0.35337,0.364287 0.64223,0.436801 0.28883,0.07257 0.52518,0.227408 0.52518,0.344024 0,0.11677 0.14897,0.212332 0.33128,0.212332 0.18218,0 0.38396,0.137211 0.44832,0.304982 0.0644,0.167617 0.37277,0.369166 0.68534,0.447609 0.31257,0.07844 0.77709,0.367914 1.03225,0.643231 0.25526,0.275341 0.69071,0.572581 0.96786,0.660529 0.27716,0.0879 0.60874,0.247082 0.73685,0.35381 1.06928,0.889929 1.3057,1.051209 1.54093,1.051209 0.3184,0 0.53088,0.48333 0.53088,1.207534 0,0.287734 0.0866,0.523139 0.1924,0.523139 0.10579,0 0.3636,0.63278 0.57297,1.406169 0.20926,0.773415 0.44791,1.406195 0.53014,1.406195 0.0823,0 0.28027,0.705781 0.44007,1.568421 0.1597,0.862641 0.36835,1.621747 0.46343,1.686929 0.0951,0.06516 0.29128,1.330716 0.436,2.812364 0.14463,1.481623 0.36557,2.763383 0.49072,2.848342 0.3222,0.21872 0.31745,24.7883 -0.005,25.00237 -0.14079,0.0935 -0.34029,2.15692 -0.50628,5.23752 -0.15075,2.79573 -0.34606,5.13215 -0.43429,5.19204 -0.0882,0.0598 -0.28643,1.95854 -0.44048,4.21923 -0.15408,2.26071 -0.36858,4.16692 -0.47672,4.23601 -0.10808,0.0692 -0.28661,2.69759 -0.39666,5.84105 -0.21284,6.08319 -0.41122,8.89288 -0.63998,9.06859 -0.0774,0.0595 -0.26842,1.03302 -0.42438,2.16336 -0.15587,1.13034 -0.36051,2.10385 -0.45456,2.16336 -0.094,0.0595 -0.2779,0.68662 -0.40857,1.3936 -0.13057,0.70701 -0.31643,1.33979 -0.41283,1.40619 -0.0963,0.0664 -0.29796,0.68049 -0.44787,1.36465 -0.14999,0.68417 -0.35028,1.24392 -0.44526,1.24392 -0.0951,0 -0.29537,0.43808 -0.44528,0.97351 -0.14999,0.53545 -0.34185,0.97353 -0.42653,0.97353 -0.0846,0 -0.33081,0.58411 -0.54698,1.29801 -0.21616,0.71391 -0.47104,1.29801 -0.5664,1.29801 -0.0953,0 -0.29006,0.38941 -0.43266,0.86533 -0.14258,0.47594 -0.34627,0.86535 -0.45262,0.86535 -0.10629,0 -0.29514,0.29205 -0.41958,0.649 -0.12443,0.35695 -0.31407,0.64901 -0.42141,0.64901 -0.10732,0 -0.19522,0.13593 -0.19522,0.30178 0,0.16609 -0.24171,0.53106 -0.53711,0.81126 -0.2954,0.2802 -0.53878,0.62514 -0.54085,0.76654 -0.002,0.1413 -0.29578,0.57683 -0.65274,0.96763 -0.60181,0.6589 -0.649,0.67561 -0.649,0.22971 0,-0.26448 -0.0815,-0.48088 -0.18116,-0.48088 -0.0996,0 -0.31019,-1.11953 -0.46779,-2.48786 -0.15766,-1.3683 -0.35798,-2.48784 -0.44526,-2.48784 -0.0874,0 -0.28431,-1.1682 -0.43783,-2.59602 -0.15356,-1.42783 -0.3467,-2.59604 -0.42934,-2.59604 -0.0825,0 -0.2758,-1.1269 -0.42934,-2.50422 -0.22843,-2.04973 -0.2274,-4.1013 0.005,-11.30352 0.15638,-4.83959 0.35479,-8.84794 0.44092,-8.90745 0.0861,-0.0595 0.2837,-3.92916 0.43902,-8.59932 0.15536,-4.67013 0.34643,-8.49113 0.42469,-8.49113 0.0782,0 0.27143,-3.84536 0.42921,-8.54526 0.15791,-4.69987 0.36902,-8.545224 0.46933,-8.545224 0.10042,0 0.18244,-1.022184 0.18244,-2.271519 0,-1.249335 -0.0879,-2.271518 -0.19521,-2.271518 -0.10732,0 -0.29699,-0.292053 -0.42142,-0.649006 -0.12444,-0.356952 -0.3221,-0.649005 -0.43926,-0.649005 -0.11728,0 -0.28032,-0.218975 -0.3626,-0.486754 -0.0823,-0.267702 -0.30786,-0.645172 -0.50134,-0.838801 -0.5968,-0.59734 -1.1089,-1.26694 -1.1089,-1.449965 0,-0.09607 -0.34066,-0.557326 -0.75702,-1.025121 -0.41636,-0.467821 -0.75708,-0.930531 -0.75716,-1.028265 -10e-5,-0.09786 -0.12188,-0.307409 -0.27059,-0.465955 -0.14871,-0.158419 -0.70849,-0.790662 -1.24392,-1.404739 -0.53543,-0.614076 -1.16821,-1.338152 -1.40619,-1.609022 -0.23789,-0.270896 -0.72418,-0.848664 -1.08047,-1.283983 -0.35629,-0.435319 -0.72683,-0.79148 -0.82344,-0.79148 -0.21591,0 -1.44928,-1.329796 -1.44928,-1.562544 0,-0.0925 -0.12443,-0.168128 -0.27641,-0.168128 -0.15203,0 -0.44071,-0.170428 -0.64147,-0.378595 -0.78302,-0.812074 -1.18277,-1.135759 -1.40272,-1.135759 -0.12597,0 -0.28518,-0.146154 -0.35366,-0.324503 -0.0685,-0.178604 -0.2736,-0.324502 -0.45581,-0.324502 -0.18218,0 -0.3313,-0.09735 -0.3313,-0.216421 0,-0.119069 -0.13108,-0.21642 -0.29139,-0.21642 -0.25561,0 -0.4915,-0.158418 -1.56407,-1.05121 -0.12802,-0.106549 -0.44452,-0.261007 -0.70308,-0.343078 -0.25858,-0.08202 -0.47014,-0.232262 -0.47014,-0.333778 0,-0.101439 -0.29205,-0.248615 -0.64901,-0.327134 -0.35695,-0.07844 -0.649,-0.230218 -0.649,-0.33756 0,-0.107316 -0.24325,-0.256101 -0.54085,-0.330762 -0.29744,-0.07461 -0.54082,-0.222553 -0.54082,-0.328617 0,-0.106038 -0.139,-0.192913 -0.30907,-0.192913 -0.16991,0 -0.44222,-0.133123 -0.605,-0.295962 -0.16277,-0.162762 -0.51047,-0.364056 -0.77263,-0.447251 -0.26215,-0.0833 -0.47666,-0.234306 -0.47666,-0.335848 0,-0.101439 -0.29205,-0.248615 -0.649,-0.327134 -0.35696,-0.07844 -0.64901,-0.230218 -0.64901,-0.337559 0,-0.107316 -0.24325,-0.256102 -0.54084,-0.330763 -0.29745,-0.07461 -0.54083,-0.214887 -0.54083,-0.311446 0,-0.09658 -0.29205,-0.239928 -0.649,-0.318243 -0.35695,-0.07844 -0.64901,-0.224341 -0.64901,-0.324502 0,-0.100162 -0.29205,-0.24606 -0.649,-0.324503 -0.35695,-0.07844 -0.64901,-0.230218 -0.64901,-0.337559 0,-0.107316 -0.2435,-0.256102 -0.54084,-0.330763 -0.29747,-0.07461 -0.54085,-0.222553 -0.54085,-0.328616 0,-0.106039 -0.139,-0.192913 -0.30904,-0.192913 -0.16992,0 -0.44225,-0.133123 -0.60501,-0.295962 -0.16276,-0.162763 -0.51046,-0.364056 -0.77262,-0.447252 -0.26218,-0.0833 -0.47666,-0.234306 -0.47666,-0.335847 0,-0.101439 -0.29206,-0.248615 -0.64901,-0.327135 -0.35695,-0.07844 -0.649,-0.230218 -0.649,-0.337559 0,-0.107316 -0.24325,-0.256102 -0.54085,-0.330763 -0.29747,-0.07461 -0.54085,-0.222552 -0.54085,-0.328616 0,-0.106038 -0.139,-0.192913 -0.30904,-0.192913 -0.16992,0 -0.44224,-0.133123 -0.60501,-0.295962 -0.16276,-0.162762 -0.51046,-0.364056 -0.77262,-0.447251 -0.26218,-0.0833 -0.47666,-0.231241 -0.47666,-0.328975 0,-0.09761 -0.34073,-0.24146 -0.75719,-0.319724 -0.41644,-0.07819 -0.75716,-0.224341 -0.75716,-0.325116 0,-0.100673 -0.24351,-0.244271 -0.54085,-0.31883 -0.29744,-0.07461 -0.54082,-0.223575 -0.54082,-0.330763 0,-0.107316 -0.29205,-0.259168 -0.64901,-0.337585 -0.35695,-0.07844 -0.649,-0.225619 -0.649,-0.327109 0,-0.101439 -0.21463,-0.252703 -0.47669,-0.335847 -0.26216,-0.0833 -0.60983,-0.284464 -0.77262,-0.447252 -0.16276,-0.162762 -0.43504,-0.295962 -0.60501,-0.295962 -0.16991,0 -0.30904,-0.08687 -0.30904,-0.192913 0,-0.106038 -0.24325,-0.25398 -0.54085,-0.328616 -0.29744,-0.07461 -0.54082,-0.223575 -0.54082,-0.330763 0,-0.107316 -0.29205,-0.259167 -0.649,-0.337585 -0.35696,-0.07844 -0.64901,-0.225618 -0.64901,-0.327109 0,-0.101439 -0.21438,-0.252703 -0.47669,-0.335847 -0.26215,-0.0833 -0.60983,-0.284464 -0.77262,-0.447252 -0.16276,-0.162762 -0.48371,-0.295961 -0.71316,-0.295961 -0.22946,0 -0.41723,-0.08969 -0.41723,-0.199046 0,-0.109615 -0.29205,-0.263281 -0.64901,-0.341698 -0.35695,-0.07844 -0.649,-0.225619 -0.649,-0.327109 0,-0.101439 -0.21463,-0.252704 -0.47666,-0.335848 -0.26216,-0.0833 -0.60984,-0.284463 -0.77263,-0.447251 -0.16276,-0.162763 -0.43503,-0.295962 -0.605,-0.295962 -0.16992,0 -0.30905,-0.08687 -0.30905,-0.192913 0,-0.106038 -0.24325,-0.253981 -0.54084,-0.328616 -0.29747,-0.07461 -0.54085,-0.223575 -0.54085,-0.330763 0,-0.107316 -0.29205,-0.259168 -0.649,-0.337585 -0.35696,-0.07844 -0.64901,-0.225619 -0.64901,-0.327109 0,-0.101439 -0.21463,-0.252703 -0.47666,-0.335847 -0.26216,-0.0833 -0.60984,-0.284464 -0.77262,-0.447252 -0.16277,-0.162762 -0.43504,-0.295962 -0.60501,-0.295962 -0.16992,0 -0.30907,-0.08687 -0.30907,-0.192913 0,-0.106038 -0.24325,-0.253981 -0.54082,-0.328616 -0.29747,-0.07461 -0.54085,-0.223575 -0.54085,-0.330763 0,-0.107316 -0.31088,-0.263307 -0.69083,-0.346758 -0.37995,-0.08355 -0.82498,-0.285894 -0.98897,-0.449858 -0.16404,-0.164039 -0.43718,-0.298133 -0.60717,-0.298133 -0.16992,0 -0.30905,-0.08688 -0.30905,-0.192913 0,-0.106038 -0.2435,-0.253981 -0.54084,-0.328617 -0.29745,-0.07461 -0.54082,-0.223574 -0.54082,-0.330762 0,-0.107316 -0.29206,-0.259168 -0.64901,-0.337585 -0.35695,-0.07844 -0.64901,-0.225619 -0.64901,-0.327109 0,-0.101439 -0.21463,-0.252703 -0.47666,-0.335848 -0.26218,-0.0833 -0.60986,-0.284463 -0.77262,-0.447251 -0.16276,-0.162762 -0.43504,-0.295962 -0.60503,-0.295962 -0.16992,0 -0.30904,-0.08687 -0.30904,-0.192913 0,-0.106038 -0.24325,-0.253981 -0.54085,-0.328616 -0.29744,-0.07461 -0.54082,-0.223575 -0.54082,-0.330763 0,-0.107316 -0.29205,-0.259168 -0.64901,-0.337585 -0.35695,-0.07844 -0.649,-0.230218 -0.649,-0.337559 0,-0.107316 -0.24325,-0.256102 -0.54085,-0.330763 -0.29747,-0.07461 -0.54084,-0.222553 -0.54084,-0.328617 0,-0.106038 -0.18781,-0.192913 -0.41721,-0.192913 -0.22945,0 -0.55845,-0.141299 -0.73105,-0.313822 -0.17247,-0.172472 -0.56895,-0.377854 -0.88078,-0.456118 -0.31183,-0.07819 -0.56699,-0.222552 -0.56699,-0.320618 0,-0.09812 -0.21437,-0.246316 -0.47666,-0.329588 -0.26215,-0.0833 -0.60983,-0.284463 -0.77262,-0.447251 -0.16276,-0.162763 -0.43504,-0.295962 -0.60501,-0.295962 -0.16991,0 -0.30904,-0.08687 -0.30904,-0.192913 0,-0.106038 -0.2435,-0.253981 -0.54085,-0.328616 -0.29747,-0.07461 -0.54084,-0.223575 -0.54084,-0.330763 0,-0.107316 -0.29205,-0.259168 -0.64901,-0.337585 -0.35695,-0.07844 -0.649,-0.225619 -0.649,-0.327109 0,-0.101439 -0.21438,-0.252703 -0.47666,-0.335848 -0.26216,-0.0833 -0.60984,-0.284463 -0.77263,-0.447251 -0.16276,-0.162762 -0.43503,-0.295962 -0.605,-0.295962 -0.16992,0 -0.30905,-0.08968 -0.30905,-0.199045 0,-0.109616 -0.31088,-0.267421 -0.69083,-0.350872 -0.37997,-0.08355 -0.825,-0.285894 -0.98897,-0.449858 -0.16404,-0.164039 -0.43721,-0.298133 -0.60717,-0.298133 -0.16992,0 -0.30905,-0.09735 -0.30905,-0.21642 0,-0.11907 -0.139,-0.216421 -0.30904,-0.216421 -0.16992,0 -0.44225,-0.133122 -0.60503,-0.295961 -0.16277,-0.162763 -0.51044,-0.364057 -0.77263,-0.447252 -0.26215,-0.0833 -0.47666,-0.234306 -0.47666,-0.335847 0,-0.101439 -0.29205,-0.248615 -0.649,-0.327135 -0.35696,-0.07844 -0.64901,-0.230218 -0.64901,-0.337559 0,-0.107316 -0.24325,-0.256102 -0.54084,-0.330763 -0.29745,-0.07461 -0.54083,-0.212077 -0.54083,-0.305186 0,-0.09326 -0.2435,-0.230473 -0.54084,-0.30516 -0.29747,-0.07461 -0.54085,-0.23124 -0.54085,-0.347959 0,-0.11677 -0.139,-0.212332 -0.30904,-0.212332 -0.16992,0 -0.44222,-0.133123 -0.60501,-0.295962 -0.16276,-0.162762 -0.53027,-0.370316 -0.81662,-0.461228 -0.28635,-0.09096 -0.65383,-0.298414 -0.81662,-0.461202 -0.16276,-0.162763 -0.48372,-0.295962 -0.71317,-0.295962 -0.22945,0 -0.41723,-0.09735 -0.41723,-0.21642 0,-0.11907 -0.139,-0.216421 -0.30904,-0.216421 -0.16992,0 -0.47937,-0.170427 -0.68751,-0.378595 -0.34017,-0.340267 -1.02538,-0.385289 -6.77074,-0.444926 -3.51576,-0.03654 -6.44329,-0.14692 -6.50564,-0.245549 -0.0623,-0.09863 -6.07609,-0.25117 -13.36388,-0.339476 -7.28777,-0.08815 -13.25052,-0.233284 -13.25052,-0.322637 0,-0.08917 -5.98707,-0.234817 -13.30461,-0.323199 -7.31753,-0.08841 -13.30461,-0.234818 -13.30461,-0.324938 0,-0.0902 -6.03575,-0.23635 -13.41276,-0.324962 -7.37705,-0.08841 -13.4128,-0.234817 -13.4128,-0.324937 0,-0.0902 -5.98707,-0.23635 -13.30461,-0.324937 -7.31753,-0.08841 -13.3046,-0.234817 -13.3046,-0.324963 0,-0.0902 -5.9384,-0.23635 -13.19643,-0.324937 -7.25805,-0.08841 -13.19645,-0.233795 -13.19645,-0.323148 0,-0.08917 -5.98707,-0.234817 -13.30461,-0.3232 -7.3947,-0.08943 -13.3046,-0.245548 -13.3046,-0.351331 0,-0.104761 -0.63278,-0.190358 -1.40617,-0.190358 -0.77342,0 -1.4062,0.08279 -1.4062,0.184226 0,0.101439 -0.79633,0.245549 -1.76966,0.320721 -0.97333,0.07512 -1.82537,0.22664 -1.89344,0.336716 -0.068,0.110126 -0.48859,0.268698 -0.93451,0.352353 -0.44593,0.08355 -0.81075,0.227663 -0.81075,0.320261 0,0.0925 -0.34073,0.232007 -0.75719,0.310245 -0.41644,0.07819 -0.75716,0.235073 -0.75716,0.348572 0,0.113704 -0.139,0.206456 -0.30905,0.206456 -0.16991,0 -0.44224,0.133122 -0.605,0.295961 -0.16277,0.162763 -0.51047,0.364031 -0.77265,0.447252 -0.26216,0.0833 -0.47666,0.23354 -0.47666,0.334033 0,0.100417 -0.38941,0.248615 -0.86533,0.328923 -0.47594,0.08049 -0.86535,0.224086 -0.86535,0.319444 0,0.09531 -0.34072,0.237117 -0.75716,0.315304 -0.41646,0.07819 -0.75719,0.233029 -0.75719,0.344458 0,0.111404 -0.24325,0.263486 -0.54082,0.338147 -0.29747,0.07461 -0.54085,0.212077 -0.54085,0.305161 0,0.09326 -0.2435,0.230473 -0.54084,0.305185 -0.29745,0.07461 -0.54082,0.223575 -0.54082,0.330763 0,0.107316 -0.29208,0.259168 -0.64903,0.337559 -0.35696,0.07844 -0.64901,0.225619 -0.64901,0.327135 0,0.101439 -0.21463,0.252703 -0.47666,0.335847 -0.26216,0.0833 -0.60984,0.284464 -0.77262,0.447252 -0.16277,0.162762 -0.43504,0.295962 -0.60501,0.295962 -0.16992,0 -0.30904,0.09735 -0.30904,0.21642 0,0.119069 -0.139,0.21642 -0.30907,0.21642 -0.16992,0 -0.44319,0.134145 -0.60718,0.298134 -0.16404,0.16404 -0.609,0.366407 -0.98895,0.449858 -0.37996,0.08355 -0.69084,0.239416 -0.69084,0.346757 0,0.107316 -0.24337,0.256102 -0.54084,0.330763 -0.29746,0.07461 -0.54084,0.212077 -0.54084,0.30516 0,0.09326 -0.24337,0.230474 -0.54083,0.305186 -0.29746,0.07461 -0.54084,0.223575 -0.54084,0.330763 0,0.107316 -0.29205,0.259168 -0.649,0.337559 -0.35696,0.07844 -0.64901,0.225619 -0.64901,0.327135 0,0.101439 -0.2145,0.252703 -0.47666,0.335847 -0.26217,0.0833 -0.60985,0.284464 -0.77263,0.447252 -0.16279,0.162762 -0.43503,0.295962 -0.60501,0.295962 -0.16997,0 -0.30905,0.08687 -0.30905,0.192913 0,0.106038 -0.24338,0.25398 -0.54084,0.328616 -0.29746,0.07461 -0.54084,0.223575 -0.54084,0.330763 0,0.107316 -0.29205,0.259167 -0.649,0.337559 -0.35695,0.07844 -0.64901,0.225619 -0.64901,0.327135 0,0.101439 -0.2145,0.252703 -0.47666,0.335847 -0.26217,0.0833 -0.60985,0.284464 -0.77263,0.447252 -0.16278,0.162762 -0.43503,0.295961 -0.60501,0.295961 -0.16997,0 -0.30905,0.09735 -0.30905,0.216421 0,0.119069 -0.13908,0.21642 -0.30905,0.21642 -0.16997,0 -0.44321,0.134145 -0.60718,0.298133 -0.16396,0.16404 -0.609,0.366407 -0.98895,0.449858 -0.37996,0.08355 -0.69084,0.241461 -0.69084,0.350872 0,0.109615 -0.13908,0.199045 -0.30905,0.199045 -0.16997,0 -0.44223,0.133123 -0.60501,0.295962 -0.16279,0.162762 -0.51046,0.364031 -0.77263,0.447251 -0.26216,0.0833 -0.47666,0.234307 -0.47666,0.335848 0,0.101439 -0.29205,0.248615 -0.649,0.327109 -0.35696,0.07844 -0.64901,0.225619 -0.64901,0.327134 0,0.101439 -0.2145,0.252704 -0.47667,0.335848 -0.26216,0.0833 -0.60984,0.284463 -0.77262,0.447251 -0.16279,0.162763 -0.43503,0.295962 -0.60501,0.295962 -0.16997,0 -0.30905,0.08687 -0.30905,0.192913 0,0.106038 -0.24338,0.253981 -0.54084,0.328616 -0.29746,0.07461 -0.54084,0.223575 -0.54084,0.330763 0,0.107316 -0.29205,0.259168 -0.649,0.33756 -0.35695,0.07844 -0.64901,0.225618 -0.64901,0.327134 0,0.101439 -0.2145,0.252703 -0.47666,0.335847 -0.26217,0.0833 -0.60985,0.284464 -0.77263,0.447252 -0.16279,0.162762 -0.43503,0.295962 -0.60501,0.295962 -0.16997,0 -0.30905,0.09735 -0.30905,0.21642 0,0.119069 -0.13908,0.21642 -0.30905,0.21642 -0.16997,0 -0.44321,0.134145 -0.60718,0.298134 -0.16396,0.16404 -0.609,0.366407 -0.98896,0.449858 -0.37995,0.08355 -0.69083,0.24146 -0.69083,0.350871 0,0.109616 -0.13908,0.199046 -0.30905,0.199046 -0.16997,0 -0.44223,0.133122 -0.60501,0.295961 -0.16279,0.162763 -0.51046,0.364031 -0.77263,0.447252 -0.26216,0.0833 -0.47666,0.234306 -0.47666,0.335847 0,0.101439 -0.29205,0.248615 -0.64901,0.327109 -0.35695,0.07844 -0.649,0.230218 -0.649,0.337585 0,0.107316 -0.24338,0.256102 -0.54084,0.330763 -0.29746,0.07461 -0.54084,0.222553 -0.54084,0.328616 0,0.106039 -0.13907,0.192913 -0.30905,0.192913 -0.16997,0 -0.44223,0.133123 -0.60501,0.295962 -0.16279,0.162762 -0.51046,0.364031 -0.77263,0.447252 -0.26216,0.0833 -0.47666,0.234306 -0.47666,0.335847 0,0.101439 -0.29205,0.248615 -0.649,0.327109 -0.35696,0.07844 -0.64901,0.230218 -0.64901,0.337585 0,0.107316 -0.24338,0.256102 -0.54084,0.330763 -0.29746,0.07461 -0.54083,0.222552 -0.54083,0.328616 0,0.106038 -0.13908,0.192913 -0.30906,0.192913 -0.16996,0 -0.44223,0.133123 -0.60501,0.295962 -0.16278,0.162762 -0.51046,0.364031 -0.77262,0.447251 -0.26217,0.0833 -0.47667,0.237628 -0.47667,0.343232 0,0.105527 -0.34072,0.255872 -0.75717,0.334008 -0.41644,0.07819 -0.75717,0.228429 -0.75717,0.334314 0,0.105783 -0.13908,0.192147 -0.30905,0.192147 -0.16997,0 -0.44224,0.133123 -0.60501,0.295962 -0.16279,0.162762 -0.51046,0.36403 -0.77263,0.447251 -0.26216,0.0833 -0.47666,0.234306 -0.47666,0.335848 0,0.101439 -0.29205,0.248615 -0.64901,0.327108 -0.35695,0.07844 -0.649,0.230218 -0.649,0.337585 0,0.107316 -0.24338,0.256102 -0.54084,0.330763 -0.29746,0.07461 -0.54084,0.222553 -0.54084,0.328617 0,0.106038 -0.13908,0.192913 -0.30905,0.192913 -0.16997,0 -0.44223,0.133122 -0.60501,0.295961 -0.16279,0.162763 -0.51046,0.364031 -0.77263,0.447252 -0.26216,0.0833 -0.47666,0.234306 -0.47666,0.335847 0,0.101439 -0.29205,0.248615 -0.649,0.327109 -0.35696,0.07844 -0.64901,0.230218 -0.64901,0.337585 0,0.107316 -0.24338,0.256102 -0.54084,0.330763 -0.29746,0.07461 -0.54084,0.222552 -0.54084,0.328616 0,0.106039 -0.13907,0.192913 -0.30905,0.192913 -0.16996,0 -0.44223,0.133123 -0.60501,0.295962 -0.16278,0.162762 -0.51046,0.364031 -0.77262,0.447252 -0.26217,0.0833 -0.47667,0.237627 -0.47667,0.343231 0,0.105528 -0.34072,0.255872 -0.75717,0.334008 -0.41644,0.07819 -0.75717,0.22843 -0.75717,0.334314 0,0.105783 -0.13908,0.192147 -0.30905,0.192147 -0.16997,0 -0.44224,0.133123 -0.60502,0.295962 -0.16278,0.162762 -0.51045,0.36403 -0.77262,0.447251 -0.26217,0.0833 -0.47666,0.234306 -0.47666,0.335848 0,0.101439 -0.29206,0.248615 -0.64901,0.327109 -0.35695,0.07844 -0.64901,0.230218 -0.64901,0.337584 0,0.107316 -0.24337,0.256102 -0.54083,0.330763 -0.29746,0.07461 -0.54084,0.222553 -0.54084,0.328617 0,0.106038 -0.13908,0.192913 -0.30905,0.192913 -0.16997,0 -0.44223,0.133122 -0.60501,0.295961 -0.16279,0.162763 -0.51046,0.364031 -0.77263,0.447252 -0.26216,0.0833 -0.47666,0.234306 -0.47666,0.335847 0,0.101439 -0.29205,0.248615 -0.64901,0.327109 -0.35695,0.07844 -0.649,0.230218 -0.649,0.337585 0,0.107316 -0.24338,0.256102 -0.54084,0.330763 -0.29746,0.07461 -0.54084,0.222553 -0.54084,0.328616 0,0.106039 -0.13907,0.192913 -0.30905,0.192913 -0.16997,0 -0.44223,0.133123 -0.60501,0.295962 -0.16279,0.162762 -0.51046,0.364031 -0.77262,0.447252 -0.26217,0.0833 -0.47667,0.237628 -0.47667,0.343231 0,0.105528 -0.34073,0.255872 -0.75717,0.334008 -0.41644,0.07819 -0.75717,0.22843 -0.75717,0.334315 0,0.105782 -0.13908,0.192146 -0.30905,0.192146 -0.16997,0 -0.44224,0.133123 -0.60502,0.295962 -0.16278,0.162762 -0.51046,0.36403 -0.77262,0.447251 -0.26217,0.0833 -0.47666,0.234307 -0.47666,0.335848 0,0.101439 -0.29206,0.248615 -0.64901,0.327109 -0.35695,0.07844 -0.64901,0.230218 -0.64901,0.337585 0,0.107315 -0.24337,0.256101 -0.54083,0.330762 -0.29747,0.07461 -0.54084,0.222553 -0.54084,0.328617 0,0.106038 -0.13908,0.192913 -0.30905,0.192913 -0.16997,0 -0.44223,0.133123 -0.60501,0.295962 -0.16279,0.162762 -0.51046,0.36403 -0.77263,0.447251 -0.26216,0.0833 -0.47666,0.234306 -0.47666,0.335848 0,0.101439 -0.29205,0.248615 -0.64901,0.327108 -0.35695,0.07844 -0.649,0.230218 -0.649,0.337585 0,0.107316 -0.24338,0.256102 -0.54084,0.330763 -0.29746,0.07461 -0.54084,0.222553 -0.54084,0.328617 0,0.106038 -0.13908,0.192913 -0.30905,0.192913 -0.16997,0 -0.44223,0.133122 -0.60501,0.295961 -0.16279,0.162763 -0.51046,0.364031 -0.77262,0.447252 -0.26217,0.0833 -0.47667,0.234306 -0.47667,0.335847 0,0.101439 -0.29205,0.248615 -0.649,0.327109 -0.35696,0.07844 -0.64901,0.232262 -0.64901,0.341699 0,0.109615 -0.18775,0.199045 -0.41722,0.199045 -0.22947,0 -0.5504,0.133123 -0.71318,0.295962 -0.16278,0.162762 -0.53025,0.370316 -0.81662,0.461203 -0.28636,0.09096 -0.65384,0.29844 -0.81661,0.461228 -0.24821,0.248104 -6.61105,0.295961 -39.43717,0.295961 -21.61511,0 -39.1412,0.08304 -39.1412,0.185503 0,0.101951 -0.60299,0.248615 -1.33999,0.325576 -0.73699,0.07691 -1.39411,0.221786 -1.46026,0.321871 -0.0662,0.09991 -0.5018,0.242227 -0.96811,0.315764 -0.46631,0.07359 -0.90461,0.225874 -0.974,0.338096 -0.0694,0.112171 -0.49101,0.272608 -0.93693,0.356263 -0.44592,0.08355 -0.81076,0.234306 -0.81076,0.334545 0,0.100417 -0.34073,0.246315 -0.75717,0.324502 -0.41645,0.07819 -0.75718,0.217954 -0.75718,0.310858 0,0.09275 -0.24337,0.229963 -0.54083,0.304547 -0.29747,0.07461 -0.54084,0.23124 -0.54084,0.347959 0,0.11677 -0.1491,0.212077 -0.3313,0.212077 -0.1822,0 -0.38732,0.146154 -0.45581,0.324502 -0.0685,0.178605 -0.24034,0.324503 -0.38188,0.324503 -0.29024,0 -0.95227,0.473851 -1.88905,1.352103 -0.34902,0.327211 -0.72515,0.594913 -0.83584,0.594913 -0.11069,0 -0.30547,0.194702 -0.43282,0.432662 -0.12735,0.237883 -0.37416,0.432687 -0.54845,0.432687 -0.17429,0 -0.3169,0.07844 -0.3169,0.174516 0,0.09607 -0.41374,0.623428 -0.91942,1.172093 -1.51098,1.63948 -2.10927,2.365216 -2.10927,2.558537 0,0.100673 -0.24337,0.445566 -0.54084,0.766517 -0.29745,0.320976 -0.54083,0.715387 -0.54083,0.876489 0,0.161229 -0.10241,0.292924 -0.22759,0.292924 -0.12517,0 -0.3294,0.29205 -0.45383,0.649 -0.12444,0.35696 -0.2959,0.64901 -0.38104,0.64901 -0.0851,0 -0.28848,0.34073 -0.45189,0.75716 -0.1634,0.41644 -0.36361,0.75717 -0.44493,0.75717 -0.0813,0 -0.27049,0.43808 -0.42041,0.9735 -0.14991,0.53543 -0.3441,0.97351 -0.43153,0.97351 -0.0874,0 -0.32982,0.70581 -0.53864,1.56845 -0.20881,0.86264 -0.44596,1.6171 -0.52698,1.67658 -0.19987,0.14666 -0.6662,2.26579 -0.6662,3.02717 0,0.33797 -0.0946,0.64694 -0.21018,0.6866 -0.4251,0.14589 -0.64534,6.20768 -0.64714,17.81159 -0.002,11.56905 0.19623,16.49109 0.67536,16.78721 0.15063,0.093 0.10318,0.2177 -0.13325,0.34998 -0.3158,0.17681 -0.34576,0.42221 -0.21433,1.75596 0.084,0.85278 0.22455,1.55051 0.31229,1.55051 0.0877,0 0.28284,1.07086 0.4336,2.37968 0.15075,1.30882 0.33653,2.37968 0.41283,2.37968 0.0763,0 0.32256,1.55761 0.54724,3.46137 0.22467,1.90376 0.47108,3.46137 0.54756,3.46137 0.0765,0 0.26424,0.90048 0.41723,2.00111 0.15298,1.1006 0.41526,2.50283 0.58283,3.11607 0.16756,0.61323 0.30466,1.51371 0.30466,2.00108 v 0.88615 l -5.35429,-0.0424 c -2.94486,-0.023 -6.01141,-0.0764 -6.81455,-0.11805 z m -40.29657,-8.977 c -2.78563,-2.08964 -6.85164,-5.95766 -9.15607,-8.71023 -5.48252,-6.54867 -9.04913,-14.44247 -10.10333,-22.36118 -1.91703,-14.39999 4.85024,-29.32642 18.07371,-39.864762 1.89658,-1.511466 5.301,-3.886187 6.42248,-4.479976 0.44942,-0.237883 0.58835,-0.05928 2.75827,3.549012 1.25676,2.089771 2.28502,3.880898 2.28502,3.980267 0,0.0994 -0.94917,0.816342 -2.10927,1.593206 -7.52854,5.041545 -13.43013,11.973433 -16.27533,19.116653 -2.36993,5.95003 -2.85889,11.50032 -1.5439,17.52537 1.76515,8.08763 7.32798,16.23834 15.09298,22.11434 l 2.40764,1.82194 -2.49804,3.7487 c -1.37392,2.06179 -2.60617,3.74869 -2.73833,3.74869 -0.13215,0 -1.30928,-0.8019 -2.61583,-1.78203 z m 161.49831,-20.17599 v -7.89622 h 5.38493 5.38492 l 0.14161,0.5642 c 0.0779,0.3103 0.47784,1.06348 0.88879,1.67369 0.41095,0.61025 0.74719,1.2325 0.74719,1.38282 0,0.20927 -0.83802,0.27332 -3.56953,0.27332 h -3.56953 v 1.08167 1.08167 l 4.27262,0.003 4.27261,0.003 0.78975,1.34832 c 0.43436,0.74158 0.85466,1.56735 0.934,1.83507 l 0.14426,0.48676 h -5.20662 -5.20662 v 1.08166 1.08167 l 5.89513,4.1e-4 5.89513,3.8e-4 0.59766,0.94604 c 0.32871,0.52033 0.83707,1.39631 1.12967,1.94664 l 0.53202,1.00056 h -9.72899 -9.729 z m 21.9811,6.94262 c -0.31016,-0.52924 -0.56392,-1.02476 -0.56392,-1.10111 0,-0.0764 -0.29167,-0.56274 -0.64814,-1.08087 -0.35648,-0.51811 -0.7483,-1.20549 -0.87073,-1.52749 -0.12242,-0.322 -0.40614,-0.84322 -0.63048,-1.15827 -0.44443,-0.62417 -1.21201,-1.98419 -2.28356,-4.04612 -0.37793,-0.72721 -0.89804,-1.61839 -1.15581,-1.98041 -0.25777,-0.36198 -0.46867,-0.7418 -0.46867,-0.84401 0,-0.10221 -0.34073,-0.69178 -0.75717,-1.31015 -1.21582,-1.80541 -1.23573,-1.79041 2.37969,-1.79041 2.0835,0 3.13685,0.0777 3.13685,0.2315 0,0.12724 0.27438,0.63837 0.60973,1.13576 0.33535,0.49735 0.80898,1.29371 1.05252,1.76963 0.90422,1.76714 1.84932,3.45005 2.35748,4.19787 0.28782,0.42356 0.52331,0.85418 0.52331,0.95692 0,0.10272 0.1839,0.44521 0.40867,0.76105 0.22477,0.31582 0.71776,1.18267 1.09556,1.92632 0.37779,0.74365 0.77922,1.3521 0.89207,1.3521 0.11286,0 0.446,-0.5111 0.74032,-1.13576 0.29433,-0.62468 0.8431,-1.67119 1.21947,-2.32561 0.37639,-0.65442 1.07111,-1.91998 1.54385,-2.81236 0.47273,-0.89238 0.93598,-1.71987 1.02944,-1.83883 0.14595,-0.18576 1.2067,-2.1479 2.01657,-3.7301 0.24021,-0.46927 0.35226,-0.48512 3.43924,-0.48675 1.75501,-9.2e-4 3.19063,0.0713 3.19025,0.16046 -3.8e-4,0.0892 -0.38947,0.74636 -0.86465,1.46026 -0.47518,0.71391 -0.86428,1.37781 -0.86465,1.47537 -3.8e-4,0.0976 -0.27678,0.5843 -0.61422,1.08166 -0.33743,0.49739 -0.76133,1.19637 -0.94199,1.55332 -0.82077,1.62175 -1.99169,3.71883 -2.46693,4.41822 -0.28633,0.42137 -0.52059,0.85666 -0.52059,0.96738 0,0.11063 -0.28641,0.64785 -0.63646,1.19371 -0.35005,0.54583 -0.92231,1.52787 -1.27168,2.18226 l -0.63523,1.18986 -4.43811,0.0585 -4.4381,0.0585 z m 29.18215,0.73251 c -1.92793,-0.52526 -2.43709,-0.8436 -3.10653,-1.94224 -0.43506,-0.71398 -0.46143,-1.03708 -0.46219,-5.66472 -4.4e-4,-2.69914 0.0905,-5.14773 0.20211,-5.44129 0.37465,-0.98539 1.36743,-1.75893 2.82576,-2.20171 1.28448,-0.39002 2.05213,-0.42664 8.86974,-0.42313 l 7.46356,0.003 1.07836,0.53737 c 1.38643,0.69086 2.06658,1.85296 2.22267,3.79755 l 0.1114,1.38772 h -2.95013 -2.95014 v -0.63107 c 0,-0.58298 -0.0833,-0.64895 -1.09233,-0.86534 -1.4038,-0.30108 -7.63174,-0.30233 -8.71412,-0.002 -1.15647,0.32113 -1.44319,1.10149 -1.44217,3.92502 6.6e-4,1.81234 0.0778,2.35068 0.41647,2.90606 0.40753,0.66835 0.45728,0.68483 2.54113,0.84162 1.16901,0.0879 3.43865,0.10092 5.04364,0.0286 3.23495,-0.14564 3.46371,-0.25091 3.46371,-1.59323 v -0.71582 h 2.90334 2.90333 l 0.14436,0.65772 c 0.17835,0.81243 -0.0652,2.72597 -0.43938,3.45266 -0.43983,0.85385 -1.20005,1.41222 -2.45381,1.80226 -0.99507,0.30958 -2.21383,0.35793 -8.54523,0.33894 -4.06155,-0.0128 -7.67669,-0.10169 -8.03364,-0.19904 z m 22.60703,-7.67513 v -7.89622 h 3.02868 3.02871 v 2.70418 2.70418 h 6.05736 6.05739 v -2.70418 -2.70418 h 2.92053 2.92052 v 7.89622 7.89623 h -2.92052 -2.92053 v -2.81234 -2.81237 h -6.05739 -6.05736 v 2.81237 2.81234 h -3.02871 -3.02868 z m 26.17655,7.73109 c 0,-0.0907 0.34073,-0.67108 0.75717,-1.28948 0.41643,-0.61837 0.75716,-1.16706 0.75716,-1.21929 0,-0.0521 0.34073,-0.60127 0.75719,-1.22013 0.41644,-0.61882 0.75739,-1.23704 0.75768,-1.37382 2.8e-4,-0.1367 0.29279,-0.58942 0.65005,-1.00585 0.35723,-0.41644 0.71005,-0.95187 0.78404,-1.18985 0.0741,-0.23789 0.46292,-0.88378 0.8643,-1.43515 0.40139,-0.55137 0.72978,-1.09401 0.72978,-1.20585 0,-0.11191 0.34072,-0.6826 0.75719,-1.26834 0.41643,-0.58574 0.75716,-1.15102 0.75716,-1.25616 0,-0.10527 0.3291,-0.64929 0.73133,-1.20917 0.40226,-0.55988 0.7982,-1.22864 0.87994,-1.48609 0.14616,-0.46021 0.22434,-0.46808 4.62294,-0.46501 l 4.47438,0.003 0.649,1.12171 c 0.35696,0.61696 0.84371,1.46844 1.08167,1.89221 0.23788,0.42377 0.70039,1.15707 1.0276,1.62956 0.32721,0.4725 0.59491,0.94655 0.59491,1.05346 0,0.10681 0.34073,0.66863 0.75719,1.24829 0.41644,0.57966 0.75717,1.12802 0.75717,1.21857 0,0.0905 0.34073,0.6706 0.75716,1.28897 0.41646,0.61839 0.75719,1.18221 0.75719,1.25291 0,0.0708 0.38941,0.702 0.86533,1.40285 0.47594,0.70084 0.86534,1.36357 0.86534,1.47273 0,0.1091 0.29206,0.56596 0.64901,1.01513 0.35695,0.44917 0.64901,0.90063 0.64901,1.00325 0,0.10271 -1.45012,0.18652 -3.22247,0.18652 h -3.22249 l -0.67154,-1.04651 c -0.36937,-0.57559 -0.67157,-1.1597 -0.67157,-1.29801 0,-0.18499 -1.599,-0.25142 -6.05739,-0.25142 -3.94038,0 -6.05737,0.0764 -6.05737,0.21897 0,0.12035 -0.3164,0.70272 -0.70309,1.2941 l -0.7031,1.07528 -3.19093,0.005 c -1.75503,0.002 -3.19094,-0.0705 -3.19094,-0.16122 z m 17.48014,-6.27082 c -0.59259,-1.21625 -0.76043,-1.51525 -1.03141,-1.83735 -0.17451,-0.20748 -0.6665,-1.0276 -1.09339,-1.82266 -1.20787,-2.2496 -1.71713,-2.34225 -2.7489,-0.50009 -0.29854,0.53302 -0.71727,1.2153 -0.93053,1.51614 -0.37834,0.53382 -1.50817,2.57913 -1.50817,2.73027 0,0.0417 1.66309,0.0759 3.69573,0.0759 2.03264,0 3.66016,-0.0731 3.61667,-0.16226 z m 12.80677,-1.46027 v -7.89622 h 2.92052 2.92052 v 5.84105 5.84105 h 6.49006 6.49005 v 2.05517 2.05518 h -9.41058 -9.41057 z m 21.84983,0 v -7.89622 h 3.02871 3.02868 v 5.84105 5.84105 h 6.3819 6.38187 v 2.05517 2.05518 h -9.41058 -9.41058 z m 21.63352,0 v -7.89622 h 10.05958 10.05959 v 1.94702 1.94701 h -7.13906 -7.13906 v 1.08167 1.08167 h 6.81455 6.81456 v 1.73069 1.73068 h -6.81456 -6.81455 v 1.08166 1.0817 h 7.24722 7.24724 v 2.05517 2.05518 H 466.02464 455.8569 Z m 23.36419,0 v -7.89622 h 4.92764 c 4.66923,0 4.94716,0.023 5.3002,0.43514 0.20492,0.23942 0.37259,0.52327 0.37259,0.63097 0,0.10782 0.0731,0.22817 0.16225,0.26795 0.14769,0.0657 0.59573,0.58848 2.10122,2.45179 0.2884,0.35695 0.94361,1.14861 1.45605,1.75924 0.51243,0.61062 1.36975,1.66789 1.90518,2.34947 0.53543,0.68159 1.24124,1.52391 1.56843,1.87185 0.32721,0.34793 0.59818,0.70225 0.60211,0.78739 0.0128,0.27355 0.81136,1.1283 1.05423,1.1283 0.16659,0 0.19368,-1.69646 0.0927,-5.84105 l -0.14207,-5.84105 h 2.84712 2.84711 v 7.89622 7.89623 h -4.85992 c -4.57278,0 -4.87306,-0.0256 -5.08245,-0.4158 -0.1224,-0.22869 -0.34531,-0.54506 -0.49534,-0.70307 -0.14999,-0.15791 -0.70905,-0.82273 -1.24224,-1.47716 -0.53318,-0.65439 -1.09252,-1.26768 -1.24294,-1.36283 -0.1505,-0.0951 -0.27353,-0.29509 -0.27353,-0.44431 0,-0.14922 -0.34073,-0.60156 -0.75719,-1.00519 -0.41644,-0.40364 -0.75716,-0.81678 -0.75716,-0.91812 0,-0.10144 -0.21898,-0.39862 -0.48676,-0.66065 -0.2677,-0.26203 -0.82651,-0.91352 -1.24174,-1.44777 -0.80188,-1.03161 -0.89142,-1.13972 -2.06218,-2.49001 l -0.75029,-0.86535 -0.001,5.89514 -10e-4,5.89512 h -2.92053 -2.92052 z m 31.87375,7.50199 c -0.61456,-0.20109 -1.47283,-0.65708 -1.90731,-1.01329 -0.72372,-0.59335 -0.8088,-0.78366 -1.01518,-2.27016 -0.12392,-0.89238 -0.18244,-3.33224 -0.13006,-5.4219 0.12214,-4.8712 0.39881,-5.4237 3.19633,-6.38249 1.07418,-0.36817 1.91525,-0.40833 8.65339,-0.41316 6.63812,-0.005 7.60713,0.0386 8.76157,0.39213 1.88388,0.57693 2.47112,1.12807 2.83073,2.65666 0.16455,0.69988 0.3009,1.58891 0.30276,1.97561 l 0.003,0.70309 h -2.79798 -2.79798 l -0.0685,-0.58918 c -0.10527,-0.9071 -1.14049,-1.10554 -5.86777,-1.12485 -6.43193,-0.0263 -6.63994,0.0971 -6.63994,3.94252 0,2.62628 0.25321,3.55392 1.05415,3.86228 0.85512,0.32923 7.66845,0.48547 9.54117,0.21872 1.71166,-0.24376 2.16844,-0.55623 2.16844,-1.48339 v -0.4995 h -3.67769 -3.67769 v -1.62252 -1.62251 h 6.38187 6.3819 l -0.002,1.56845 c -9.9e-4,0.86264 -0.0989,2.44457 -0.21769,3.51543 -0.20544,1.85294 -0.25322,1.97901 -0.98721,2.609 -1.45684,1.25026 -2.60529,1.39496 -10.94366,1.37889 -6.36265,-0.0128 -7.5883,-0.0667 -8.5454,-0.37993 z m 24.37337,-7.50199 v -7.89622 h 9.95142 9.95142 v 1.94702 1.94701 h -7.24724 -7.24722 v 1.08167 1.08167 h 6.81456 6.81456 v 1.73069 1.73068 h -6.81456 -6.81456 v 1.08166 1.0817 h 7.46357 7.46356 v 2.05517 2.05518 H 545.63598 535.46821 Z M 335.03374,125.08588 c -2.55771,-0.29151 -4.05667,-0.66761 -5.34906,-1.34211 -2.25168,-1.17518 -2.74503,-2.65096 -2.90984,-8.70436 -0.23712,-8.70919 0.47973,-11.29688 3.49953,-12.63286 0.35695,-0.15791 1.86589,-0.47035 3.3532,-0.69426 3.77692,-0.56862 18.90061,-0.6072 21.68321,-0.0552 3.83184,0.76 5.34438,2.38629 5.35393,5.7566 l 0.005,1.67661 h -4.11574 -4.11571 l -0.20058,-0.52769 c -0.11038,-0.29024 -0.39735,-0.63296 -0.63779,-0.76164 -1.24519,-0.6664 -13.70565,-0.67108 -14.9491,-0.005 -0.8761,0.4689 -1.33045,1.98353 -1.45253,4.8423 -0.12829,3.00405 0.15617,4.80501 0.88279,5.58903 0.79848,0.86157 2.8816,1.08632 9.12074,0.98398 5.82858,-0.0956 6.94963,-0.27802 7.3526,-1.19654 0.21105,-0.48134 0.26157,-0.48676 4.51978,-0.48676 h 4.30623 l -0.13006,1.24392 c -0.47042,4.49567 -1.54225,5.42553 -7.28687,6.32154 -1.63559,0.25501 -16.67854,0.24964 -18.92933,-0.008 z m 44.45688,-0.13465 c -5.56614,-0.104 -9.41581,-0.67349 -11.4078,-1.68749 -1.01224,-0.51525 -2.80036,-2.38931 -2.94355,-3.085 -0.0675,-0.32795 -0.28035,-1.27775 -0.47303,-2.11065 -0.52127,-2.25343 -0.34786,-9.62853 0.26926,-11.44922 0.43468,-1.28253 1.79703,-2.95272 2.76484,-3.38967 0.23788,-0.10732 0.57871,-0.28125 0.75719,-0.38624 0.65672,-0.38631 2.54183,-0.86049 4.54304,-1.14278 2.85161,-0.40221 16.67092,-0.40121 19.36197,10e-4 4.5041,0.67389 6.65067,1.88262 7.96537,4.48529 0.50711,1.00391 0.79022,6.06575 0.54682,9.77645 -0.23814,3.63029 -0.59098,4.6735 -2.04728,6.05309 -1.12117,1.06215 -1.67068,1.37408 -3.44673,1.9564 -2.07155,0.67923 -9.0168,1.10686 -15.8901,0.97839 z m 9.41058,-7.15513 c 1.9648,-1.01603 2.35213,-1.91337 2.23901,-5.18709 -0.081,-2.34746 -0.29616,-2.8825 -1.52838,-3.80248 -1.23134,-0.91934 -8.25928,-1.34433 -11.7865,-0.71278 -1.75762,0.31472 -2.98856,1.08391 -3.25466,2.03376 -0.0902,0.32187 -0.16404,1.86024 -0.16404,3.41865 0,3.21362 0.0565,3.35485 1.62252,4.0524 1.40159,0.62432 3.02311,0.77094 7.78806,0.70414 3.77272,-0.0529 4.30998,-0.10655 5.08388,-0.5066 z m 28.77255,6.83561 c -2.26069,-0.10144 -4.74313,-0.33 -5.51655,-0.50807 -0.77339,-0.17809 -1.58107,-0.32353 -1.79483,-0.32322 -0.21386,3e-4 -1.10484,-0.35356 -1.98015,-0.78637 -3.24628,-1.60517 -3.92649,-3.24258 -4.21141,-10.138 -0.30041,-7.26947 0.0897,-13.474067 0.99459,-15.819122 0.30327,-0.78591 1.66053,-2.29684 2.34061,-2.605629 0.35695,-0.161996 0.79503,-0.380945 0.9735,-0.486396 0.50439,-0.29798 2.54932,-0.82881 4.21854,-1.095056 2.6612,-0.42446 12.73514,-0.697578 20.76817,-0.563076 6.53546,0.10936 8.08382,0.196746 9.62692,0.542303 3.13219,0.701539 4.52891,1.427684 5.5434,2.881967 1.00552,1.44143 1.15257,1.961069 1.30368,4.606839 l 0.14156,2.47859 h -5.63066 -5.63063 l -0.12572,-0.59492 c -0.0751,-0.35531 -0.41814,-0.7811 -0.85203,-1.05721 -0.63174,-0.40203 -1.28864,-0.49779 -5.03938,-0.73471 -4.24579,-0.26818 -11.40754,-0.16915 -13.85475,0.19138 -0.74247,0.10936 -1.38688,0.38629 -1.96521,0.84433 -0.81754,0.64752 -0.87961,0.78312 -1.24374,2.71754 -0.30288,1.60923 -0.36268,2.77907 -0.28518,5.58088 0.19164,6.92415 0.33902,7.00755 12.38691,7.00417 7.55886,-0.002 9.19781,-0.14589 10.52909,-0.92332 0.37225,-0.21744 0.62577,-0.59369 0.71288,-1.05811 l 0.13517,-0.7207 h 5.86271 5.86269 l -0.12239,2.10927 c -0.12188,2.10014 -0.6953,4.12821 -1.45497,5.14479 -0.99584,1.33264 -2.78079,2.21684 -5.62471,2.78628 -3.60967,0.7228 -16.06712,0.97389 -26.06839,0.52546 z M 282.13981,108.54936 V 92.648725 h 20.11916 20.11917 v 3.785873 3.785852 h -14.71079 -14.71079 v 2.16336 2.16335 h 13.95362 13.95361 v 3.56953 3.56953 h -13.95361 -13.95362 v 2.48784 2.48786 h 14.81896 14.81896 v 3.89403 3.89403 h -20.22734 -20.22733 z m 169.07714,15.4325 c 0.0818,-0.25746 0.47768,-0.92621 0.87991,-1.4861 0.40226,-0.55988 0.73136,-1.104 0.73136,-1.20916 0,-0.10528 0.34073,-0.67042 0.75716,-1.25616 0.41644,-0.58574 0.75717,-1.15651 0.75717,-1.26835 0,-0.11191 0.34072,-0.6675 0.75719,-1.23482 0.41643,-0.56732 0.75716,-1.12551 0.75716,-1.24047 0,-0.11498 0.27764,-0.59225 0.61702,-1.06071 0.33934,-0.46846 0.78228,-1.20005 0.98429,-1.62576 0.20211,-0.42571 0.53819,-0.95751 0.74707,-1.1818 0.20875,-0.22435 0.61086,-0.87059 0.8933,-1.4362 0.28242,-0.5656 0.69078,-1.21864 0.90743,-1.45121 0.21668,-0.23252 0.39393,-0.50165 0.39393,-0.59798 0,-0.0963 0.23635,-0.52284 0.52498,-0.94775 0.28873,-0.42492 0.71383,-1.10464 0.94463,-1.51048 0.23073,-0.40585 0.93153,-1.5654 1.55718,-2.57675 2.5616,-4.140936 2.88554,-4.669517 3.11553,-5.083884 0.1321,-0.237884 0.55638,-0.888294 0.94293,-1.445161 0.38656,-0.556867 0.70281,-1.150222 0.70281,-1.318554 0,-0.168384 0.18729,-0.475665 0.41639,-0.682912 0.22894,-0.207222 0.68355,-0.904852 1.01007,-1.550229 l 0.59371,-1.173422 8.86373,0.05647 c 8.61217,0.05493 8.87032,0.06873 9.09629,0.48913 0.12801,0.237884 0.55224,0.942259 0.94295,1.565099 0.39071,0.622841 0.71038,1.235359 0.71038,1.361149 0,0.125712 0.18167,0.423846 0.40399,0.662343 0.2223,0.238394 0.58646,0.794188 0.80947,1.234873 0.22306,0.440685 0.7227,1.252376 1.11036,1.803723 0.38767,0.551375 0.70486,1.095005 0.70486,1.208075 0,0.11319 0.38941,0.76145 0.86535,1.44089 0.47592,0.67941 0.86533,1.30529 0.86533,1.39084 0,0.0856 0.34072,0.6615 0.75719,1.27987 0.41643,0.61839 0.75716,1.1807 0.75716,1.24956 0,0.069 0.34073,0.6312 0.75716,1.24959 0.41647,0.61837 0.75719,1.21137 0.75719,1.31771 0,0.1063 0.34073,0.66766 0.75717,1.24732 0.41643,0.57966 0.75716,1.11126 0.75716,1.18132 0,0.07 0.61863,1.11636 1.37469,2.3251 0.75607,1.20876 1.54596,2.56278 1.75533,3.00898 0.20927,0.44618 0.45436,0.81126 0.5444,0.81126 0.0899,0 0.49179,0.63952 0.89269,1.42119 0.40093,0.78167 0.90025,1.60506 1.10962,1.82981 0.20926,0.22485 0.38066,0.48699 0.38066,0.58278 0,0.0958 0.34073,0.68015 0.75717,1.29852 1.27936,1.89972 1.61934,1.79046 -5.57061,1.79003 l -6.32781,-3.9e-4 -0.60339,-0.95511 c -0.85498,-1.35333 -1.61263,-2.69861 -2.04948,-3.63902 l -0.37583,-0.80906 -12.06067,-0.002 c -8.20281,-0.002 -12.06069,0.0698 -12.06069,0.22255 0,0.12367 -0.34073,0.73082 -0.75716,1.34921 -0.41647,0.61837 -0.75719,1.20015 -0.75719,1.2928 0,0.0927 -0.3545,0.70241 -0.7878,1.35499 l -0.7878,1.18651 h -6.36583 -6.36584 z m 35.4245,-12.45789 c -0.0759,-0.20824 -0.39751,-0.768 -0.71491,-1.24394 -0.3174,-0.47592 -0.72379,-1.15738 -0.90309,-1.51433 -0.17937,-0.35695 -0.84334,-1.47649 -1.47566,-2.48786 -0.6323,-1.01138 -1.29635,-2.13091 -1.47565,-2.48787 -0.17937,-0.35695 -0.60207,-1.05593 -0.93952,-1.55332 -0.33743,-0.49735 -0.61352,-1.03766 -0.61352,-1.20065 0,-0.54177 -0.50832,-0.81555 -1.51435,-0.81555 -1.002,0 -1.51433,0.2737 -1.51433,0.80898 0,0.15944 -0.34073,0.79572 -0.75719,1.41411 -0.41644,0.61837 -0.75716,1.20271 -0.75716,1.29853 0,0.0958 -0.19522,0.38362 -0.43361,0.6396 -0.2384,0.25597 -0.64451,0.90901 -0.9023,1.45122 -0.25781,0.54217 -0.74413,1.39272 -1.08074,1.89011 -0.33662,0.49738 -0.61204,0.98544 -0.61204,1.08455 0,0.0991 -0.32361,0.66572 -0.71912,1.25905 -1.34712,2.02091 -2.0298,1.83594 6.77649,1.83594 7.31255,0 7.76632,-0.023 7.6367,-0.37857 z m 22.86655,4.82597 v -8.10005 l 16.17106,-0.0667 c 15.69875,-0.0646 16.19184,-0.0792 16.88303,-0.49707 0.88485,-0.535 1.02137,-1.00854 1.00826,-3.49697 -0.0128,-2.20288 -0.1275,-2.45651 -1.42674,-3.11926 -0.78483,-0.40039 -1.44518,-0.41684 -16.72635,-0.41684 H 509.508 v -4.127653 -4.127648 l 19.09159,0.08764 c 20.67968,0.0948 20.70378,0.09633 22.72469,1.284289 0.57041,0.335337 1.10584,0.609708 1.18985,0.609708 0.18167,0 1.35453,1.434633 1.67839,2.053105 0.80099,1.529659 1.08134,8.352879 0.46098,11.220199 -0.25881,1.19635 -0.48188,1.64991 -1.15375,2.34598 -0.45809,0.47459 -1.0276,0.95084 -1.26556,1.05836 -0.23789,0.10757 -0.57869,0.28779 -0.75717,0.40067 -0.1786,0.11294 -0.7139,0.27254 -1.18985,0.35481 l -0.86535,0.14948 1.00696,0.26703 c 1.5407,0.40855 2.58061,1.00126 3.26587,1.86147 0.53694,0.67402 0.65003,1.06215 0.81928,2.81237 0.10809,1.11672 0.19905,3.27165 0.20212,4.78869 l 0.005,2.75827 h -5.60838 -5.60835 l -0.0705,-3.01368 c -0.0787,-3.36461 -0.24351,-3.81097 -1.69654,-4.59018 -0.69668,-0.37364 -1.43346,-0.40055 -10.97202,-0.40055 h -10.22523 v 4.00222 4.00219 h -5.51655 -5.51654 z"
       id="path1" /></g></svg>
